# Blender 5.2.0 LTS
# www.blender.org
mtllib Frieren_LOD3.mtl
o Frieren_LOD3
v -1.363784 0.128204 -1.799467
v -1.238784 0.014204 -1.432800
v -1.445305 0.139993 -1.439467
v -1.123399 0.216931 -1.326390
v -1.766057 0.219759 -1.356609
v -1.641726 0.000204 -1.566133
v -1.763784 0.224204 -1.862430
v -1.731641 0.464204 -1.862324
v -1.888784 0.464204 -1.399467
v -1.888784 0.464204 -1.699467
v -2.026284 0.608204 -1.699467
v -1.828784 0.677537 -1.730717
v -1.720034 0.445742 -1.338861
v -1.870602 0.667281 -1.478414
v -1.854498 0.907840 -1.451640
v -1.863784 0.960204 -1.747467
v -1.153070 0.464204 -1.328254
v -1.147608 0.896204 -1.282324
v -1.104409 0.445742 -1.833949
v -1.041415 0.674204 -1.488356
v -0.988784 0.464204 -1.399467
v -0.988784 0.464204 -1.699467
v -0.834238 0.632204 -1.639467
v -1.041284 0.913435 -1.429196
v -1.022994 0.854204 -1.737928
v -0.943622 1.133769 -1.683250
v -1.205451 1.036204 -1.826550
v -1.741725 1.149918 -1.838176
v -1.658784 0.976204 -1.821689
v -1.856965 1.168204 -1.454467
v -1.906025 1.123663 -1.658726
v -1.903069 1.401982 -1.547742
v -1.788784 1.344204 -1.399467
v -1.912922 1.786871 -1.419467
v -2.053490 1.441347 -1.680112
v -1.909836 2.000204 -1.799467
v -1.903069 1.390871 -1.955988
v -1.977673 1.955632 -2.047086
v -1.718514 2.011572 -1.449467
v -1.253070 1.930871 -1.252408
v -1.155451 1.709918 -1.129467
v -1.092950 1.552204 -1.273885
v -0.973399 1.404204 -1.359467
v -1.024267 1.230520 -1.476739
v -0.855450 1.440204 -1.650487
v -0.960784 1.772775 -1.407159
v -0.967731 2.004204 -1.799467
v -0.899895 1.941127 -2.032800
v -1.188784 2.078490 -1.973151
v -0.996476 1.346785 -1.934761
v -1.233229 1.209031 -2.002692
v -1.734938 1.442665 -2.120156
v -1.731641 1.953435 -2.140376
v -1.672117 1.244204 -2.003313
v -1.688784 2.080675 -1.979467
v -1.117355 1.454973 -2.130501
v -1.145927 1.961347 -2.126740
v -1.246679 2.080871 -1.446526
v -1.077019 1.901445 -1.406133
v -1.209837 1.080871 -1.334249
v -1.676284 1.086813 -1.377244
v -1.715613 0.902465 -1.296689
v -1.788784 1.344204 -1.299467
v -1.674498 1.907682 -1.277728
v -1.700322 1.761595 -1.141133
v -1.385842 1.794204 -1.219074
v -1.738784 1.592480 -1.282006
v -1.088784 1.344204 -1.299467
v -1.088784 1.344204 -1.399467
v -1.147875 0.224204 -1.885830
vn 0.1807 -0.9144 0.3622
vn 0.0535 -0.8592 -0.5089
vn 0.5760 -0.3741 -0.7268
vn -0.0549 -0.8553 0.5152
vn 0.5734 -0.4208 0.7029
vn -0.5539 -0.4823 0.6787
vn -0.5688 -0.4323 -0.6997
vn -0.2413 -0.9648 0.1042
vn -0.4599 0.1278 -0.8787
vn -0.9184 -0.3284 -0.2209
vn -0.8406 -0.3541 0.4100
vn 0.1088 0.9941 -0.0000
vn -0.3469 0.0586 0.9361
vn 0.0492 0.9984 0.0281
vn 0.1049 -0.5258 0.8441
vn 0.9800 -0.1802 0.0849
vn -0.7541 -0.1722 0.6338
vn -0.6225 -0.5944 -0.5090
vn -0.9035 -0.1296 -0.4086
vn -0.4493 -0.1811 -0.8748
vn -0.8463 0.0983 0.5236
vn -0.7109 0.1512 -0.6869
vn 0.3725 0.0941 0.9232
vn 0.7203 -0.0380 -0.6926
vn 0.7339 -0.2368 0.6366
vn 0.8572 0.0738 0.5097
vn 0.4466 0.1247 0.8860
vn 0.7811 0.0795 -0.6194
vn -0.9826 -0.1692 -0.0767
vn -0.7077 0.1175 0.6967
vn 0.7321 -0.5138 -0.4473
vn 0.9860 -0.0159 -0.1659
vn 0.7360 -0.6770 -0.0000
vn -0.0000 1.0000 -0.0000
vn 0.8738 0.1060 -0.4747
vn 0.7757 -0.6047 -0.1807
vn 0.9395 -0.2925 -0.1783
vn 0.8092 -0.2397 0.5364
vn 0.2793 -0.2937 -0.9142
vn -0.4811 -0.5386 -0.6917
vn -0.2300 -0.0206 -0.9730
vn -0.9539 -0.2044 -0.2198
vn -0.8248 -0.0862 0.5589
vn -0.7847 -0.1698 0.5962
vn -0.9805 -0.1847 0.0671
vn -0.8386 0.2430 0.4876
vn -0.7638 -0.3793 -0.5222
vn -0.2379 -0.6819 -0.6917
vn -0.8219 0.3868 -0.4182
vn -0.7351 0.6691 0.1092
vn -0.3877 0.8434 0.3720
vn 0.1956 0.6358 0.7467
vn -0.2977 0.7010 0.6480
vn -0.0843 0.0422 0.9955
vn 0.2773 -0.1564 0.9480
vn 0.6549 0.5663 0.5004
vn 0.2124 -0.2749 0.9377
vn 0.5682 0.0746 0.8195
vn 0.7635 0.3228 0.5593
vn 0.7227 -0.3156 0.6149
vn 0.9961 -0.0876 -0.0132
vn 0.7580 0.6471 0.0820
vn 0.1621 0.9428 -0.2912
vn 0.8451 0.3577 -0.3973
vn 0.1859 0.4498 -0.8736
vn 0.7688 -0.3516 -0.5343
vn 0.1897 -0.6282 -0.7546
vn -0.3123 -0.3064 -0.8992
vn 0.3736 -0.2842 -0.8830
vn -0.1630 0.4075 -0.8985
vn -0.1497 0.9512 -0.2698
vn 0.2256 0.9064 0.3571
vn 0.2885 0.0725 0.9547
vn -0.4138 0.1631 0.8956
vn -0.2901 0.0621 0.9550
vn -0.0555 0.6365 0.7693
vn 0.4859 -0.0705 0.8711
vn -0.9236 -0.3196 0.2115
vn 0.0656 -0.6182 0.7833
vn -0.4526 -0.2949 0.8415
vn -0.2594 0.0135 0.9657
vn 0.0784 0.6121 0.7869
vn 0.8121 -0.3475 0.4689
vn 0.4614 -0.8872 -0.0000
vn 0.4981 -0.0960 0.8618
vn 0.5748 -0.4145 0.7056
vn -0.9998 -0.0200 -0.0000
vn -0.9086 0.4177 -0.0000
vn 0.3971 0.0546 0.9161
vt 0.373047 0.500000
vt 0.068359 0.500000
vt 0.994141 0.500000
vt 0.001953 0.500000
vt 0.033203 0.500000
vt 0.986328 0.500000
vt 0.166016 0.500000
vt 0.841797 0.500000
vt 0.623047 0.500000
s 1
usemtl palette.002
f 2/1/1 1/1/2 70/1/3
f 3/2/4 4/2/5 5/2/6
f 5/3/6 7/3/7 6/3/8
f 8/4/9 7/4/7 10/4/10
f 9/4/11 7/4/7 5/4/6
f 10/4/10 7/4/7 9/4/11
f 9/4/12 13/4/13 10/4/14
f 9/5/15 10/5/16 14/5/17
f 10/5/18 9/5/15 11/5/19
f 10/4/14 13/4/13 8/4/9
f 14/5/17 10/5/16 12/5/20
f 10/5/18 11/5/19 12/5/20
f 15/2/21 11/2/19 14/2/17
f 12/2/20 11/2/19 16/2/22
f 12/6/20 8/6/9 14/6/17
f 14/6/17 8/6/9 13/6/13
f 15/4/21 14/4/17 13/4/13
f 17/4/23 13/4/13 4/4/5
f 5/2/6 4/2/5 13/2/13
f 13/4/13 9/4/11 5/4/6
f 17/6/23 19/6/24 20/6/25
f 17/4/23 20/4/25 24/4/26
f 18/2/27 17/2/23 24/2/26
f 25/5/28 22/5/29 20/5/25
f 20/5/25 22/5/29 21/5/30
f 22/5/31 25/5/28 23/5/32
f 22/5/31 23/5/32 21/5/33
f 17/4/23 21/4/34 22/4/35
f 21/4/36 19/4/24 22/4/35
f 17/4/23 22/4/35 19/4/24
f 20/2/25 23/2/32 24/2/26
f 24/4/26 23/4/32 25/4/28
f 24/4/26 25/4/28 26/4/37
f 24/7/26 26/7/37 44/7/38
f 25/4/28 27/4/39 26/4/37
f 28/4/40 29/4/41 31/4/42
f 29/4/41 28/4/40 27/4/39
f 8/4/9 29/4/41 27/4/39
f 19/4/24 27/4/39 25/4/28
f 19/6/24 8/6/9 27/6/39
f 12/2/20 16/2/22 29/2/41
f 31/4/42 16/4/22 15/4/21
f 30/7/43 31/7/42 15/7/21
f 32/8/44 35/8/45 31/8/42
f 32/7/44 31/7/42 30/7/43
f 34/7/46 35/7/45 32/7/44
f 28/7/40 37/7/47 54/7/48
f 38/7/49 37/7/47 36/7/50
f 39/7/51 36/7/50 34/7/46
f 40/7/52 64/7/53 66/7/54
f 40/7/52 66/7/54 41/7/55
f 41/7/55 59/7/56 40/7/52
f 42/7/57 59/7/56 41/7/55
f 42/7/58 46/7/59 59/7/56
f 42/7/58 43/7/60 46/7/59
f 44/5/38 45/5/61 43/5/60
f 26/7/37 45/7/61 44/7/38
f 46/7/59 45/7/61 47/7/62
f 49/7/63 48/7/64 57/7/65
f 47/7/62 50/7/66 48/7/64
f 45/7/61 50/7/66 47/7/62
f 26/7/37 50/7/66 45/7/61
f 51/7/67 52/7/68 56/7/69
f 54/7/48 52/7/68 51/7/67
f 52/7/68 38/7/49 53/7/70
f 37/7/47 38/7/49 52/7/68
f 52/7/68 54/7/48 37/7/47
f 51/5/67 26/5/37 27/5/39
f 50/5/66 26/5/37 51/5/67
f 54/5/48 51/5/67 28/5/40
f 51/5/67 27/5/39 28/5/40
f 38/7/49 55/7/71 53/7/70
f 52/7/68 53/7/70 56/7/69
f 56/7/69 53/7/70 57/7/65
f 57/7/65 55/7/71 49/7/63
f 53/7/70 55/7/71 57/7/65
f 55/7/71 58/7/72 49/7/63
f 39/7/51 58/7/72 55/7/71
f 36/7/50 39/7/51 55/7/71
f 38/7/49 36/7/50 55/7/71
f 64/7/53 58/7/72 39/7/51
f 58/7/72 64/7/53 40/7/52
f 58/7/72 40/7/52 59/7/56
f 58/7/72 59/7/56 47/7/62
f 58/7/72 47/7/62 49/7/63
f 46/7/59 47/7/62 59/7/56
f 56/7/69 57/7/65 48/7/64
f 50/7/66 56/7/69 48/7/64
f 56/7/69 50/7/66 51/7/67
f 49/7/63 47/7/62 48/7/64
f 43/7/60 45/7/61 46/7/59
f 60/7/73 18/7/27 24/7/26
f 24/5/26 44/5/38 60/5/73
f 18/2/27 60/2/73 62/2/74
f 18/2/27 62/2/74 17/2/23
f 61/7/75 15/7/21 62/7/74
f 61/7/75 30/7/43 15/7/21
f 62/2/74 15/2/21 13/2/13
f 11/5/19 9/5/15 14/5/17
f 16/4/22 11/4/19 15/4/21
f 62/4/74 60/4/73 61/4/75
f 61/5/75 63/5/76 30/5/43
f 63/5/76 61/5/75 33/5/77
f 33/5/78 30/5/43 63/5/76
f 63/7/79 33/7/77 67/7/80
f 63/7/79 67/7/80 32/7/44
f 33/7/78 63/7/79 32/7/44
f 34/7/46 32/7/44 67/7/80
f 34/7/46 67/7/80 65/7/81
f 34/7/46 65/7/81 64/7/53
f 36/7/50 35/7/45 34/7/46
f 34/7/46 64/7/53 39/7/51
f 66/7/54 65/7/81 67/7/80
f 61/4/75 67/4/80 33/4/77
f 60/9/73 42/9/57 67/9/80
f 42/5/57 66/5/54 67/5/80
f 60/5/73 67/5/80 61/5/75
f 60/5/73 44/5/38 68/5/82
f 69/7/83 43/7/60 68/7/84
f 43/7/60 42/7/58 68/7/85
f 42/7/57 69/7/86 68/7/87
f 60/5/73 68/5/82 69/5/88
f 68/5/82 44/5/38 69/5/83
f 44/7/38 43/7/60 69/7/83
f 69/4/86 42/4/57 60/4/73
f 42/7/57 41/7/55 66/7/54
f 65/7/81 66/7/54 64/7/53
f 36/7/50 37/7/47 35/7/45
f 28/7/40 35/7/45 37/7/47
f 31/7/42 35/7/45 28/7/40
f 16/4/22 31/4/42 29/4/41
f 32/5/44 30/5/43 33/5/78
f 8/4/9 12/4/20 29/4/41
f 19/2/24 4/2/5 70/2/3
f 21/4/89 17/4/23 4/4/5
f 4/4/5 19/4/24 21/4/36
f 7/2/7 70/2/3 1/2/2
f 7/4/7 8/4/9 70/4/3
f 70/4/3 8/4/9 19/4/24
f 23/5/32 20/5/25 21/5/30
f 20/6/25 19/6/24 25/6/28
f 17/6/23 62/6/74 13/6/13
f 6/3/8 3/3/4 5/3/6
f 3/1/4 1/1/2 2/1/1
f 6/1/8 7/1/7 1/1/2
f 3/1/4 6/1/8 1/1/2
f 2/3/1 70/3/3 4/3/5
f 2/3/1 4/3/5 3/3/4
