# Blender 5.2.0 LTS
# www.blender.org
mtllib Frieren_LOD1.mtl
o Frieren_LOD1
v 1.534441 -0.041056 1.273065
v 1.534441 0.278944 1.273065
v 1.534441 -0.041056 1.673065
v 1.334442 -0.041056 1.273065
v 1.534441 0.138944 1.598065
v 1.334442 0.278944 1.273065
v 1.334442 0.158944 1.573065
v 1.334442 0.262944 1.673065
v 1.234442 0.278944 1.273065
v 1.534441 0.246944 1.673065
v 1.234442 0.246944 1.673065
v 1.634442 0.278944 1.773065
v 1.534441 0.278944 1.773065
v 1.634442 0.278944 1.673065
v 0.934442 0.278944 1.673065
v 1.034441 0.265611 1.673065
v 1.034441 0.278944 1.273065
v 1.034441 0.158944 1.573065
v 0.834442 0.278944 1.273065
v 0.934442 0.278944 1.273065
v 0.934442 0.278944 1.173065
v 0.926750 0.518944 1.273065
v 0.834442 0.278944 1.673065
v 0.834442 0.518944 1.673065
v 0.834442 0.518944 1.373065
v 0.634442 0.518944 1.373065
v 0.834442 0.718944 1.573065
v 0.834442 0.705611 1.373065
v 0.934442 0.518944 1.673065
v 0.717776 0.758944 1.373065
v 0.801109 0.758944 1.623065
v 0.734442 0.918944 1.573065
v 0.834442 0.958944 1.373065
v 0.867776 0.758944 1.273065
v 0.934442 0.732278 1.373065
v 0.934442 0.678944 1.573065
v 1.034441 0.518944 1.273065
v 1.034441 0.518944 1.673065
v 1.034441 0.518944 1.773065
v 1.534441 0.518944 1.775287
v 1.034441 0.278944 1.773065
v 1.034441 0.518944 1.873065
v 0.934442 0.518944 1.773065
v 1.534441 0.278944 1.873065
v 1.034441 0.278944 1.873065
v 0.934442 0.278944 1.773065
v 1.534441 0.518944 1.673065
v 1.634442 0.518944 1.682156
v 1.534441 0.865611 1.773065
v 1.634442 0.518944 1.263974
v 1.634442 0.678944 1.573065
v 1.634442 0.958944 1.673065
v 1.534441 0.918944 1.673065
v 1.634442 0.798944 1.573065
v 1.784442 0.758944 1.573065
v 1.734442 0.678944 1.573065
v 1.734442 0.732278 1.373065
v 1.734442 0.518944 1.673065
v 1.734442 0.758944 1.673065
v 1.634442 0.705611 1.373065
v 1.734442 0.518944 1.373065
v 1.851109 0.758944 1.373065
v 1.934442 0.518944 1.673065
v 1.734442 0.518944 1.273065
v 1.734442 0.278944 1.273065
v 1.934442 0.518944 1.373065
v 1.934442 0.758944 1.673065
v 1.834442 0.918944 1.573065
v 1.734442 0.958944 1.573065
v 1.634442 0.998944 1.573065
v 1.746942 0.918944 1.373065
v 1.734442 1.025611 1.373065
v 1.634442 1.062944 1.373065
v 1.659442 1.018944 1.273065
v 1.734442 1.132278 1.473065
v 1.734442 1.212278 1.573065
v 1.634442 1.118944 1.473065
v 1.684442 1.158944 1.373065
v 1.534441 1.170373 1.273065
v 1.734442 1.158944 1.273065
v 1.534441 1.118944 1.373065
v 1.534441 1.038944 1.273065
v 1.434442 1.052278 1.273065
v 1.034441 1.158944 1.273065
v 1.034441 1.198944 1.173065
v 1.034441 1.118944 1.373065
v 1.034441 1.238944 1.273065
v 1.134442 1.025611 1.273065
v 1.134442 1.052278 1.173065
v 1.434442 1.025611 1.173065
v 1.028559 0.518944 1.173065
v 1.534441 0.998944 1.173065
v 1.720157 0.758944 1.273065
v 1.534441 0.518944 1.273065
v 1.534441 0.518944 1.160565
v 1.034441 1.038944 1.273065
v 0.934442 1.052278 1.273065
v 0.834442 0.998944 1.273065
v 0.834442 0.958944 1.573065
v 0.834442 1.078944 1.373065
v 0.934442 1.038944 1.373065
v 0.834442 1.138944 1.473065
v 0.934442 1.126944 1.473065
v 0.834442 1.222944 1.573065
v 0.734442 1.185611 1.573065
v 0.834442 1.238944 1.673065
v 0.834442 0.998944 1.673065
v 0.734442 1.190944 1.373065
v 0.784442 1.238944 1.473065
v 0.634442 1.238944 1.423065
v 0.634442 1.478944 1.473065
v 0.734442 1.518944 1.473065
v 0.843533 1.398944 1.573065
v 0.834442 1.478944 1.473065
v 0.934442 1.398944 1.673065
v 0.934442 1.238944 1.573065
v 0.834442 1.462944 1.706398
v 0.734442 1.478944 1.673065
v 0.734442 1.798944 1.673065
v 0.534441 1.518944 1.473065
v 0.734442 1.558944 1.373065
v 0.534441 1.518944 1.373065
v 0.634442 1.478944 1.373065
v 0.734442 1.238944 1.273065
v 0.734442 1.438944 1.273065
v 0.634442 1.478944 1.273065
v 0.684442 2.038944 1.273065
v 0.734442 1.878944 1.273065
v 0.734442 1.446944 1.173065
v 0.834442 1.398944 1.273065
v 0.834442 1.438944 1.173065
v 0.834442 1.238944 1.173065
v 0.934442 1.372278 1.173065
v 0.834442 1.438944 1.073065
v 0.934442 1.438944 1.073065
v 0.801109 1.878944 1.073065
v 0.634442 1.478944 1.073065
v 0.834442 1.478944 0.973065
v 0.734442 2.078944 1.073065
v 0.759442 1.878944 0.973065
v 0.634442 2.038944 1.073065
v 0.734442 2.198944 1.273065
v 0.834442 1.878944 1.273065
v 0.834442 1.985611 1.573065
v 0.834442 1.852278 1.573065
v 0.834442 1.905611 1.673065
v 0.834442 2.038944 1.273065
v 0.934442 2.098944 1.273065
v 0.934442 2.022944 1.573065
v 1.034441 2.038944 1.573065
v 0.934442 2.118944 1.573065
v 1.034441 2.038944 1.673065
v 1.034441 1.958944 1.773065
v 1.134442 2.038944 1.673065
v 1.134442 2.038944 1.773065
v 1.434442 2.038944 1.873065
v 1.434442 1.998944 1.773065
v 1.134442 1.974944 1.873065
v 1.234442 1.905611 1.873065
v 1.384442 1.958944 1.873065
v 1.534441 1.958944 1.973065
v 1.334442 1.918944 1.973065
v 1.534441 1.825611 1.973065
v 1.534441 1.998944 1.773065
v 1.534441 1.878944 1.773065
v 1.634442 1.838944 1.773065
v 1.634442 1.878944 1.973065
v 1.601109 1.718944 1.973065
v 1.634442 1.758944 1.873065
v 1.734442 1.852278 1.773065
v 1.734442 1.798944 1.873065
v 1.734442 1.558944 1.853065
v 1.634442 1.574944 1.773065
v 1.734442 1.398944 1.773065
v 1.734442 1.478944 1.673065
v 1.725351 1.398944 1.573065
v 1.734442 1.798944 1.673065
v 1.834442 1.478944 1.673065
v 1.734442 1.478944 1.473065
v 1.634442 1.238944 1.573065
v 1.734442 1.238944 1.473065
v 1.867776 1.238944 1.473065
v 1.834442 1.190944 1.573065
v 1.834442 1.222944 1.373065
v 1.734442 1.238944 1.373065
v 1.934442 1.238944 1.373065
v 1.784442 1.238944 1.273065
v 1.834442 1.558944 1.373065
v 1.934442 1.478944 1.473065
v 1.834442 1.518944 1.473065
v 1.934442 1.478944 1.373065
v 2.034441 1.518944 1.373065
v 2.034441 1.518944 1.473065
v 1.834442 1.425611 1.273065
v 1.834442 1.798944 1.673065
v 1.834442 1.852278 1.573065
v 1.834442 1.878944 1.273065
v 1.734442 1.878944 1.273065
v 1.667776 2.038944 1.273065
v 1.934442 1.478944 1.273065
v 1.884442 2.038944 1.273065
v 1.859442 2.038944 1.073065
v 1.834442 2.198944 1.273065
v 1.634442 2.134944 1.273065
v 1.834442 2.138944 1.048065
v 1.634442 2.158944 1.073065
v 1.634442 2.118944 0.973065
v 1.834442 1.878944 1.033065
v 1.734442 1.878944 1.006398
v 1.734442 1.462944 1.073065
v 1.934442 1.478944 1.073065
v 1.834442 1.462944 1.173065
v 1.734442 1.414944 1.173065
v 1.734442 1.398944 1.273065
v 1.734442 1.238944 1.173065
v 1.634442 1.345611 1.173065
v 1.534441 1.318944 1.073065
v 1.534441 1.238944 1.173065
v 1.634442 1.398944 1.073065
v 1.534441 1.372278 0.973065
v 1.434442 1.292278 0.973065
v 1.034441 1.438944 0.973065
v 1.534441 1.505611 0.973065
v 1.034441 1.505611 0.873065
v 1.034441 1.558944 0.973065
v 1.134442 1.265611 0.973065
v 0.934442 1.518944 0.973065
v 0.934442 2.038944 0.973065
v 0.934442 1.558944 0.873065
v 0.934442 1.398944 0.973065
v 1.034441 1.358944 1.023065
v 1.034441 1.278944 1.073065
v 1.134442 1.318944 1.073065
v 1.134442 1.198944 1.073065
v 1.434442 1.238944 1.073065
v 1.434442 1.174944 1.173065
v 1.134442 1.190944 1.173065
v 1.034441 1.318944 1.173065
v 0.934442 1.318944 1.073065
v 0.734442 2.118944 0.973065
v 0.934442 2.132278 1.073065
v 0.984442 2.038944 1.073065
v 1.034441 1.998944 0.973065
v 0.934442 1.958944 0.873065
v 1.034441 2.012277 0.873065
v 1.534441 1.532278 0.873065
v 1.559442 1.978944 0.873065
v 1.534441 2.022944 0.973065
v 1.534441 2.118944 1.039731
v 1.634442 1.985611 0.973065
v 1.584442 2.038944 1.073065
v 1.034441 2.118944 1.006398
v 1.134442 2.118944 1.139731
v 1.434442 2.134944 1.073065
v 1.534441 2.134944 1.173065
v 1.134442 2.198944 1.106398
v 1.434442 2.182944 1.173065
v 1.501108 2.198944 1.573065
v 1.534441 2.086944 1.573065
v 1.034441 2.164659 1.173065
v 1.034441 2.134944 1.573065
v 1.134442 2.182944 1.573065
v 0.934442 2.198944 1.273065
v 0.734442 2.198944 1.073065
v 1.134442 2.134944 1.673065
v 1.434442 2.158944 1.673065
v 1.434442 2.078944 1.723065
v 1.534441 1.998944 1.673065
v 1.634442 1.918944 1.723065
v 1.634442 1.998944 1.673065
v 1.734442 1.932278 1.673065
v 1.634442 1.958944 1.573065
v 1.634442 2.065611 1.573065
v 1.734442 2.012277 1.573065
v 1.534441 2.118944 1.673065
v 1.434442 2.118944 1.573065
v 1.734442 1.825611 1.573065
v 1.701109 1.532278 0.973065
v 1.634442 1.452278 0.973065
v 1.634442 1.558944 0.873065
v 1.734442 1.238944 1.673065
v 1.601109 1.238944 1.673065
v 1.709442 1.025611 1.673065
v 1.634442 1.238944 1.773065
v 1.634442 1.052278 1.773065
v 1.534441 1.078944 1.673065
v 1.534441 1.185611 1.773065
v 1.034441 1.185611 1.673065
v 0.934442 1.078944 1.673065
v 1.034441 1.025611 1.673065
v 1.034441 1.212278 1.773065
v 0.934442 1.238944 1.698065
v 1.134442 1.070055 1.673065
v 1.434442 1.025611 1.673065
v 1.434442 1.070055 1.773065
v 1.534441 1.014944 1.773065
v 1.594442 0.998944 1.873065
v 1.601109 0.838944 1.873065
v 1.634442 0.892278 1.773065
v 1.134442 1.025611 1.773065
v 1.034441 1.038944 1.773065
v 0.934442 1.025611 1.773065
v 0.934442 0.958944 1.673065
v 0.934442 0.998944 1.573065
v 0.934442 0.865611 1.773065
v 1.034441 0.918944 1.673065
v 1.034441 0.892278 1.773065
v 0.974442 0.998944 1.873065
v 0.967775 0.838944 1.873065
v 0.634442 0.758944 1.673065
v 0.634442 0.518944 1.673065
v 0.734442 0.918944 1.373065
v 0.934442 1.398944 1.773065
v 1.034441 1.398944 1.733065
v 0.934442 1.598944 1.773065
v 0.834442 1.558944 1.806398
v 0.934442 1.585611 1.873065
v 0.834442 1.798944 1.873065
v 0.834442 1.814944 1.748065
v 0.934442 1.878944 1.773065
v 0.934442 1.758944 1.873065
v 0.734442 1.825611 1.573065
v 0.934442 1.958944 1.673065
v 1.034441 1.958944 1.973065
v 1.034441 1.852278 1.973065
v 0.934442 1.878944 1.973065
v 1.134442 1.825611 1.973065
v 1.084442 1.758944 1.873065
v 1.134442 1.838944 1.873065
v 1.234442 1.918944 1.973065
v 1.234442 1.852278 1.773065
v 1.334442 1.862944 1.873065
v 1.234442 1.798944 1.873065
v 1.334442 1.825611 1.773065
v 1.134442 1.772278 1.773065
v 1.034441 1.692278 1.773065
v 1.034441 1.678944 1.873065
v 1.034441 1.558944 1.773065
v 0.984442 1.558944 1.673065
v 0.967775 1.718944 1.973065
v 1.534441 1.638944 1.773065
v 1.534441 1.398944 1.756398
v 1.634442 1.398944 1.773065
v 1.634442 1.398944 1.673065
v 1.584442 1.558944 1.673065
v 1.434442 1.745611 1.773065
v 1.534441 1.718944 1.873065
v 1.634442 1.612278 1.873065
v 1.434442 1.798944 1.873065
v 1.434442 1.852278 1.973065
v 0.834442 1.198944 1.273065
v 0.834442 1.238944 1.373065
v 0.884442 1.158944 1.373065
v 1.534441 0.278944 1.173065
v 1.534441 0.278944 1.073065
v 1.034441 0.518944 1.073065
v 1.634442 0.278944 1.173065
v 1.634442 0.278944 1.273065
v 1.734442 0.278944 1.673065
v 1.034441 0.278944 1.173065
v 1.034441 0.278944 1.073065
v 1.034441 0.998944 1.173065
v 1.234442 0.138944 1.598065
v 1.034441 -0.041056 1.273065
v 1.234442 -0.041056 1.273065
v 1.234442 -0.041056 1.673065
v 1.034441 0.118944 1.673065
v 1.034441 -0.041056 1.673065
v 1.334442 0.038944 1.673065
vn -0.0000 -0.0000 -1.0000
vn -0.2935 -0.9032 -0.3132
vn 0.3009 -0.9036 -0.3050
vn 0.9014 -0.0982 0.4218
vn 1.0000 -0.0000 -0.0000
vn -0.7046 -0.7084 0.0414
vn -0.9039 -0.0193 0.4273
vn -0.0576 -0.9973 0.0462
vn 0.2932 -0.9027 -0.3149
vn 0.1555 -0.8734 0.4616
vn 0.2353 -0.9094 0.3428
vn 0.6139 -0.4897 0.6191
vn 0.4449 -0.8539 0.2701
vn -0.3428 -0.8794 0.3303
vn 0.2991 -0.9055 0.3009
vn -0.2320 -0.8123 0.5351
vn -0.2948 -0.9035 -0.3112
vn -0.9477 0.0580 0.3140
vn -0.2976 -0.9024 -0.3115
vn -0.5965 -0.5375 -0.5961
vn -0.5851 -0.5503 -0.5957
vn -0.6901 0.1787 -0.7013
vn -0.7071 0.2720 -0.6527
vn -0.9535 0.1159 -0.2781
vn -1.0000 -0.0000 -0.0000
vn -0.5774 -0.5774 0.5774
vn -0.0000 1.0000 -0.0000
vn -0.7087 0.7055 0.0088
vn 0.9950 0.0446 0.0892
vn 0.7197 -0.1423 0.6796
vn -0.0000 -1.0000 -0.0000
vn -0.7137 0.1388 -0.6866
vn -0.3376 0.1172 -0.9340
vn -0.9042 0.3966 0.1584
vn -0.9673 -0.1525 0.2026
vn -0.9452 0.2986 0.1324
vn -0.2422 0.6244 0.7426
vn -0.7530 0.5098 -0.4161
vn -0.9588 0.2782 0.0574
vn -0.4767 -0.0156 -0.8789
vn -0.9487 -0.0000 -0.3162
vn -0.6059 -0.7704 0.1985
vn -0.6607 -0.7503 -0.0232
vn 0.1408 -0.9537 -0.2657
vn -0.1534 -0.7795 0.6073
vn -0.9999 0.0088 0.0076
vn -0.5773 0.5774 0.5773
vn -0.0962 -0.9015 0.4220
vn -0.0000 0.7071 0.7071
vn -0.5471 -0.7434 -0.3849
vn -0.7071 0.7071 -0.0000
vn -0.0000 -0.0000 1.0000
vn -0.3015 -0.9045 0.3015
vn 0.6402 0.4193 0.6436
vn -0.0031 0.7061 0.7081
vn 0.1782 0.3713 0.9113
vn 0.0548 0.1141 0.9920
vn 0.5932 -0.4867 0.6413
vn 0.6780 0.1854 0.7113
vn -0.0791 0.4862 0.8702
vn 0.5546 0.5772 0.5994
vn 0.6568 0.2671 0.7052
vn 0.2934 -0.5699 0.7676
vn 0.7233 0.6906 -0.0000
vn 0.7495 0.6442 0.1525
vn 0.3305 -0.8635 0.3809
vn 0.6560 -0.6028 0.4543
vn 0.5566 -0.7843 -0.2741
vn 0.0755 -0.9828 -0.1688
vn 0.2031 -0.9493 -0.2401
vn -0.9917 0.1007 -0.0805
vn -0.9501 0.2435 -0.1948
vn -0.7807 0.4880 -0.3904
vn -0.0000 -0.9912 -0.1322
vn 0.6033 0.2970 -0.7402
vn 0.7137 0.1388 -0.6866
vn 0.5807 -0.5838 -0.5674
vn 0.7104 0.6989 -0.0835
vn 0.7122 0.4516 0.5374
vn 0.9096 -0.2842 0.3032
vn 0.6098 0.0891 0.7875
vn 0.0923 -0.7189 0.6890
vn 0.8929 0.2541 -0.3718
vn 0.5182 -0.1691 -0.8384
vn 0.8227 0.4110 -0.3927
vn 0.3803 0.6417 -0.6660
vn 0.3623 0.4977 -0.7881
vn 0.8892 -0.2778 -0.3635
vn 0.7408 0.3909 0.5462
vn 0.6548 -0.0340 -0.7550
vn 0.3677 -0.8833 -0.2910
vn 0.8586 -0.4472 0.2504
vn 0.4855 -0.7153 -0.5026
vn 0.3833 -0.9215 0.0628
vn 0.1202 -0.8729 -0.4728
vn 0.2307 -0.8653 -0.4450
vn 0.6883 0.3751 -0.6209
vn 0.4610 0.4752 -0.7494
vn 0.0551 0.6006 -0.7977
vn 0.5180 0.5262 -0.6744
vn -0.5701 -0.6543 -0.4968
vn -0.5748 -0.7598 0.3039
vn -0.7472 -0.4107 -0.5225
vn -0.0282 -0.8766 -0.4805
vn 0.2390 -0.8665 -0.4382
vn 0.0212 -0.9283 -0.3713
vn -0.2502 0.3898 -0.8863
vn -0.6926 -0.0955 -0.7150
vn 0.0700 0.5252 -0.8481
vn -0.1088 0.7518 -0.6503
vn -0.2124 0.7941 -0.5695
vn 0.0890 0.6117 -0.7860
vn -0.0087 0.6952 -0.7188
vn 0.6474 0.3782 -0.6617
vn 0.9602 -0.1409 0.2411
vn 0.7974 -0.3045 0.5210
vn 0.3678 0.3778 -0.8497
vn 0.5528 0.5727 -0.6053
vn 0.8281 0.3656 -0.4249
vn 0.1947 0.2400 -0.9510
vn -0.7250 0.4245 -0.5424
vn -0.2879 0.6733 -0.6810
vn -0.5762 0.8020 0.1572
vn -0.7874 -0.5656 -0.2451
vn -0.7288 -0.0064 0.6847
vn 0.1419 0.5213 -0.8415
vn -0.2378 0.3501 -0.9060
vn -0.6685 -0.0923 -0.7380
vn -0.8567 0.3576 0.3718
vn -0.6715 -0.1395 0.7278
vn -0.5949 0.7937 -0.1270
vn -0.8769 -0.4463 0.1785
vn -0.8006 0.4399 0.4068
vn -0.6322 0.1379 0.7625
vn -0.4623 -0.8839 -0.0703
vn -0.4372 -0.4417 0.7834
vn -0.4205 -0.3102 0.8526
vn -0.7665 0.0176 0.6420
vn -0.6686 -0.4398 0.5996
vn -0.9088 -0.1930 0.3698
vn -0.7089 -0.5697 0.4158
vn -0.6804 -0.6077 0.4096
vn -0.5435 -0.0789 0.8357
vn -0.8269 0.1592 0.5393
vn -0.8553 0.1343 -0.5005
vn -0.1826 0.9129 0.3651
vn -0.4237 -0.3014 -0.8542
vn -0.3783 -0.1314 -0.9163
vn -0.2115 -0.9649 -0.1556
vn -0.3704 -0.9259 -0.0741
vn -0.3371 -0.9408 -0.0360
vn -0.4637 -0.8259 -0.3208
vn -0.2273 -0.9469 -0.2273
vn -0.7410 -0.0000 -0.6715
vn -0.1007 -0.3021 -0.9480
vn -0.1707 -0.9581 -0.2299
vn 0.0753 -0.8476 -0.5253
vn -0.8155 -0.1997 -0.5432
vn -0.9957 -0.0892 0.0250
vn -0.6641 -0.0503 -0.7459
vn -0.2298 -0.9721 -0.0472
vn 0.1751 -0.8412 -0.5116
vn -0.9860 -0.1545 0.0625
vn -0.7979 -0.1817 -0.5747
vn -0.8332 0.5122 0.2083
vn -0.9559 0.2916 0.0363
vn -0.8456 0.5338 -0.0067
vn -0.9961 0.0695 0.0544
vn -0.9733 0.1970 -0.1182
vn -0.0536 0.9929 0.1061
vn -0.7952 0.5962 0.1105
vn -0.0000 0.9961 0.0885
vn -0.3502 0.8565 0.3791
vn -0.3712 0.8750 0.3109
vn -0.4716 0.8581 0.2030
vn -0.5028 0.8379 0.2123
vn -0.5082 0.7263 0.4629
vn -0.7609 0.6488 -0.0000
vn -0.7468 0.6636 -0.0442
vn -0.5290 0.8458 0.0691
vn -0.4559 0.7135 0.5321
vn -0.5679 0.7120 0.4129
vn -0.4454 0.8035 0.3949
vn -0.5774 0.5774 0.5774
vn 0.8011 0.5986 -0.0050
vn 0.4599 0.7970 0.3915
vn -0.0627 0.9091 0.4118
vn 0.5263 -0.2875 0.8002
vn 0.8296 -0.5185 0.2074
vn -0.1881 0.9407 0.2822
vn -0.1358 0.9563 0.2591
vn -0.0515 0.8373 0.5443
vn -0.7714 -0.2849 0.5690
vn -0.2745 -0.3634 0.8903
vn 0.3561 0.9068 0.2258
vn 0.1165 0.9915 -0.0582
vn 0.5970 0.7758 0.2043
vn 0.7133 0.6873 -0.1375
vn 0.3908 0.2442 0.8875
vn 0.3355 0.2097 0.9184
vn -0.4581 0.8589 0.2290
vn 0.2213 -0.7419 0.6330
vn 0.9280 -0.3725 0.0073
vn -0.1455 0.7020 0.6971
vn -0.2225 0.8079 0.5457
vn -0.0157 0.7827 0.6222
vn -0.2981 0.7454 0.5963
vn 0.8611 -0.0422 0.5066
vn 0.0452 -0.0393 0.9982
vn 0.5300 -0.4129 0.7407
vn -0.6276 -0.6037 0.4915
vn -0.2618 -0.1487 0.9536
vn 0.9997 -0.0188 -0.0151
vn 0.8986 -0.3340 0.2845
vn 0.9986 -0.0454 0.0275
vn 0.5858 -0.5889 0.5568
vn 0.6350 -0.5064 0.5834
vn 0.4169 -0.6255 0.6595
vn 0.6496 0.4767 0.5923
vn 0.9987 0.0486 0.0130
vn 0.9988 0.0338 0.0367
vn 0.0965 0.9315 0.3506
vn 0.6271 -0.1366 0.7668
vn -0.0000 0.9015 0.4327
vn 0.3501 -0.9356 -0.0457
vn 0.5593 -0.8272 -0.0541
vn -0.0750 -0.4686 -0.8802
vn 0.5503 -0.5356 -0.6405
vn 0.7649 -0.5555 -0.3261
vn 0.1571 -0.9820 0.1047
vn 0.0512 0.8286 -0.5575
vn 0.9998 -0.0178 -0.0058
vn 0.7520 0.0195 0.6588
vn 0.8107 -0.2252 0.5404
vn 0.8875 -0.1772 0.4253
vn 0.8039 -0.5869 0.0962
vn 0.8281 -0.5606 -0.0000
vn 0.8366 0.0768 -0.5424
vn 0.8144 0.0948 0.5726
vn 0.9448 -0.1966 0.2621
vn -0.2190 0.9276 0.3028
vn 0.6577 0.3114 0.6859
vn 0.7460 0.1513 0.6486
vn 0.6206 0.0554 0.7821
vn 0.9171 0.1197 -0.3803
vn 0.5945 0.5706 -0.5665
vn 0.5991 0.2080 0.7732
vn 0.4921 0.8649 -0.0992
vn -0.1793 0.9787 -0.0997
vn 0.2450 0.4868 -0.8384
vn 0.4476 -0.0004 -0.8942
vn 0.3579 -0.0287 -0.9333
vn 0.0480 -0.1070 -0.9931
vn 0.7321 0.0133 -0.6811
vn 0.1192 -0.9921 -0.0396
vn 0.3142 -0.9350 -0.1646
vn 0.2769 -0.9407 -0.1963
vn 0.4460 -0.8089 -0.3831
vn 0.4221 -0.8394 -0.3424
vn 0.3895 -0.8789 -0.2753
vn 0.2546 -0.9549 -0.1528
vn 0.6410 -0.3402 -0.6881
vn 0.6877 0.0679 -0.7228
vn 0.4850 -0.5692 -0.6639
vn 0.5405 -0.7447 -0.3915
vn 0.5748 -0.7023 -0.4200
vn 0.5814 -0.6907 -0.4301
vn 0.4096 -0.6978 -0.5876
vn 0.5767 -0.7209 -0.3845
vn 0.2414 -0.5427 -0.8045
vn -0.2890 -0.1667 -0.9427
vn 0.0449 -0.3687 -0.9285
vn 0.1057 -0.9543 -0.2795
vn 0.1103 -0.8270 -0.5513
vn -0.6231 -0.7808 0.0452
vn -0.8045 -0.5240 0.2795
vn -0.0401 -0.4380 -0.8981
vn 0.3320 0.5894 -0.7365
vn -0.0576 -0.9967 0.0576
vn 0.3482 -0.8704 -0.3482
vn 0.2981 -0.7454 -0.5963
vn -0.7335 -0.6676 -0.1276
vn -0.8724 -0.4538 0.1815
vn 0.2074 -0.5185 -0.8296
vn -0.1463 -0.8943 -0.4228
vn -0.3908 -0.2442 -0.8875
vn -0.3355 -0.2097 -0.9184
vn -0.6468 -0.4042 -0.6468
vn -0.8893 -0.4034 0.2152
vn -0.7316 -0.6778 -0.0729
vn -0.1692 -0.9065 -0.3869
vn -0.6765 -0.3903 -0.6245
vn -0.1862 -0.8704 -0.4559
vn -0.2383 -0.5415 -0.8062
vn 0.3267 -0.8035 -0.4977
vn 0.1825 -0.9340 -0.3070
vn -0.1512 -0.9864 -0.0647
vn -0.7577 -0.5917 0.2754
vn -0.7566 -0.6071 0.2428
vn -0.7378 -0.6120 0.2848
vn 0.0769 -0.9851 -0.1538
vn 0.8341 -0.5213 -0.1804
vn 0.7807 -0.4879 0.3904
vn -0.5870 0.6253 -0.5143
vn 0.1619 0.5984 -0.7847
vn -0.2403 0.9013 0.3605
vn 0.3790 0.5294 -0.7590
vn 0.0475 0.9917 -0.1191
vn -0.0883 0.9522 -0.2926
vn -0.2009 0.7641 -0.6131
vn 0.0777 -0.6183 -0.7821
vn 0.2785 0.8124 -0.5122
vn 0.3536 0.5040 -0.7880
vn -0.2037 0.8078 -0.5532
vn 0.2546 0.7400 -0.6225
vn 0.6259 0.4037 -0.6672
vn 0.3640 0.3761 -0.8521
vn -0.3963 0.2457 -0.8846
vn -0.1999 0.6157 -0.7623
vn 0.1081 0.9240 -0.3668
vn 0.2447 0.9616 -0.1242
vn 0.2495 0.9397 -0.2340
vn -0.3464 0.5833 -0.7347
vn 0.3868 0.8418 0.3765
vn 0.7845 0.2335 0.5745
vn -0.2423 0.9527 -0.1834
vn -0.4130 0.8874 0.2048
vn -0.2222 0.9522 0.2096
vn -0.0837 0.9922 -0.0925
vn 0.4845 0.6928 -0.5342
vn 0.6929 0.7115 -0.1163
vn 0.1163 0.7115 -0.6929
vn -0.2135 0.7914 0.5728
vn -0.5693 0.5931 0.5693
vn 0.0192 0.7213 0.6924
vn -0.0268 0.5819 0.8128
vn -0.0468 0.8058 0.5904
vn 0.0705 0.5287 0.8459
vn 0.3547 0.7725 0.5267
vn 0.3634 0.8378 0.4075
vn 0.6468 0.4042 0.6468
vn 0.3546 0.7725 0.5267
vn 0.0370 0.6673 0.7439
vn 0.1968 0.8647 0.4621
vn 0.7740 0.6115 0.1641
vn 0.3331 0.4997 0.7996
vn 0.6519 0.7448 0.1423
vn 0.8899 0.3887 0.2389
vn 0.4940 0.6860 0.5342
vn -0.3845 0.7209 0.5767
vn 0.9594 0.2578 -0.1146
vn 0.1233 0.9080 0.4004
vn 0.1914 0.8973 0.3978
vn -0.1662 0.9804 0.1054
vn 0.7189 0.6620 -0.2118
vn 0.7485 0.6241 -0.2244
vn 0.8471 0.4935 -0.1974
vn 0.8958 0.4240 -0.1333
vn 0.7442 -0.6202 0.2481
vn -0.1885 0.9426 0.2756
vn -0.0000 0.9662 0.2577
vn -0.1155 0.9249 0.3621
vn 0.0841 0.6756 0.7325
vn 0.2039 0.7645 0.6116
vn -0.5567 -0.2982 -0.7754
vn -0.8636 0.1349 -0.4858
vn 0.3670 -0.1529 -0.9176
vn -0.9423 0.1672 -0.2899
vn -0.9229 0.1924 -0.3334
vn -0.7680 0.3200 -0.5547
vn 0.8834 0.0156 -0.4684
vn 0.4538 -0.3782 -0.8069
vn 0.3518 -0.4157 -0.8387
vn 0.9349 -0.0562 -0.3506
vn 0.2367 -0.8878 -0.3946
vn 0.1927 -0.9272 -0.3211
vn 0.5053 0.0766 -0.8596
vn 0.7306 0.6782 -0.0793
vn 0.2106 -0.9751 -0.0702
vn 0.8300 -0.5526 -0.0764
vn 0.1608 0.5277 0.8341
vn 0.8359 -0.5138 0.1931
vn 0.6365 -0.7161 -0.2864
vn -0.0114 0.2440 0.9697
vn -0.0653 0.9667 0.2474
vn 0.8581 -0.3754 0.3504
vn 0.8683 -0.2915 0.4014
vn 0.5449 -0.6130 0.5721
vn 0.3755 -0.6650 0.6456
vn -0.0798 -0.5509 0.8308
vn 0.8540 -0.3558 0.3796
vn -0.3396 -0.3783 0.8611
vn 0.0449 0.2008 0.9786
vn 0.1314 0.7728 0.6209
vn -0.1217 0.4971 0.8591
vn 0.0645 0.8115 0.5808
vn -0.2534 -0.5822 0.7726
vn 0.2355 0.8246 0.5144
vn -0.4463 0.7805 0.4377
vn 0.0924 0.4101 0.9073
vn 0.1356 -0.7170 0.6837
vn 0.8607 -0.4861 -0.1514
vn -0.0829 0.5602 0.8242
vn 0.3711 -0.0082 0.9286
vn 0.4559 -0.0000 0.8900
vn 0.0942 0.9904 0.1013
vn -0.8252 0.3986 0.4002
vn -0.9935 -0.0001 0.1139
vn -0.1570 -0.0981 0.9827
vn -0.6783 -0.6832 -0.2705
vn -0.1149 0.4058 0.9067
vn -0.6628 -0.5210 0.5379
vn -0.0916 -0.7132 0.6950
vn -0.1480 0.7059 0.6927
vn 0.8831 0.3606 0.3002
vn 0.1283 0.6152 0.7779
vn 0.1142 0.0952 0.9889
vn -0.9828 0.1444 -0.1155
vn -0.2255 0.5638 -0.7945
vn -0.9946 0.1036 -0.0000
vn -0.8446 0.5337 -0.0419
vn -0.6444 0.4610 0.6102
vn 0.0036 0.0019 1.0000
vn -0.4653 0.2950 0.8346
vn -0.3719 0.6911 0.6198
vn -0.7046 -0.6878 0.1744
vn 0.3162 -0.0000 0.9487
vn -0.7097 -0.3574 0.6071
vn -0.3264 -0.3839 0.8638
vn 0.9803 -0.0884 0.1768
vn 0.9237 -0.1713 0.3427
vn -0.4380 -0.8766 0.1991
vn 0.5430 -0.8324 -0.1110
vn 0.1964 -0.7235 0.6618
vn -0.9053 -0.0499 0.4219
vn -0.4877 0.6179 0.6167
vn -0.3571 0.7108 0.6060
vn -0.6794 0.0163 0.7336
vn -0.5802 0.6463 0.4956
vn -0.3285 0.9126 0.2434
vn -0.7112 0.6840 0.1621
vn -0.2667 0.9442 0.1936
vn -0.4250 0.6737 0.6046
vn -0.5611 0.5679 0.6022
vn -0.0230 0.6791 0.7337
vn 0.3551 -0.6323 0.6886
vn -0.0821 -0.3078 0.9479
vn -0.5245 0.6242 0.5791
vn 0.7431 -0.6679 -0.0410
vn 0.4644 -0.8263 0.3187
vn 0.8030 0.1511 0.5765
vn 0.3369 -0.6674 0.6641
vn -0.5470 -0.6154 0.5675
vn 0.1641 -0.6115 0.7740
vn 0.1423 -0.7448 0.6519
vn 0.3312 -0.5353 0.7770
vn -0.2731 -0.5558 0.7852
vn 0.7325 -0.6756 0.0841
vn 0.5118 -0.5015 0.6975
vn 0.7996 -0.4997 0.3331
vn 0.7636 -0.6401 -0.0853
vn -0.2259 -0.5649 0.7936
vn -0.0801 -0.3490 0.9337
vn -0.7404 -0.3915 0.5464
vn 0.8197 -0.2562 0.5123
vn -0.3532 -0.4414 0.8249
vn -0.7932 -0.4870 0.3657
vn 0.7069 -0.3535 0.6127
vn 0.6691 -0.3714 0.6437
vn 0.6750 -0.3687 0.6391
vn 0.6245 -0.3903 0.6765
vn 0.1164 0.1981 0.9732
vn -0.2821 -0.5182 0.8074
vn 0.0090 0.0504 0.9987
vn -0.0752 0.0567 0.9956
vn -0.1225 0.6669 0.7351
vn 0.7046 -0.6878 0.1744
vn -0.4843 0.0723 0.8719
vn -0.5691 -0.4336 0.6987
vn 0.6277 0.1962 0.7533
vn 0.8833 -0.0325 0.4676
vn -0.2463 -0.5053 0.8270
vn -0.4639 -0.6634 0.5871
vn -0.3660 -0.4223 0.8293
vn -0.4974 -0.7478 0.4398
vn -0.2416 -0.5131 0.8236
vn -0.8586 0.4472 -0.2504
vn 0.4649 -0.8717 -0.1550
vn -0.9960 0.0889 -0.0000
vn 0.1826 -0.9129 -0.3651
vn -0.4630 -0.8864 -0.0070
vn -0.4199 -0.9033 0.0884
vn 0.0351 -0.9988 -0.0351
vn -0.4153 -0.8002 -0.4326
vn -0.4866 -0.8223 -0.2951
vn 0.3971 -0.8274 -0.3971
vn -0.5065 -0.1759 -0.8441
vn -0.0000 0.3939 -0.9191
vn -0.5956 0.5743 -0.5616
vn -0.9999 0.0103 0.0053
vn -0.8770 0.4785 0.0448
vn 0.2883 -0.9101 -0.2978
vn 0.5969 -0.5550 -0.5794
vn 0.5911 -0.4959 -0.6362
vn 0.0344 0.7181 -0.6951
vn 0.2919 -0.9086 -0.2989
vn 0.0678 -0.0095 -0.9977
vn 0.5807 -0.5838 0.5674
vn 0.0905 -0.0000 0.9959
vn 0.3080 -0.0091 0.9514
vn -0.2998 -0.9071 -0.2953
vn -0.5709 -0.5815 -0.5795
vn -0.9583 -0.0059 -0.2856
vn -0.9983 -0.0000 -0.0587
vn -0.6757 0.2650 -0.6879
vn -0.1884 0.9794 -0.0727
vn -0.9999 0.0123 -0.0049
vn 0.0905 -0.0000 -0.9959
vn 0.9331 -0.0945 0.3469
vn 0.2941 0.3676 0.8823
vn 0.1464 0.1830 0.9722
vn 0.1776 0.2220 0.9588
vn 0.0464 0.9275 0.3710
vn -0.0320 0.6399 0.7678
vn -0.7046 -0.4884 0.5148
vn 0.1521 0.3801 0.9123
vn -0.1362 -0.6133 0.7780
vt 0.373047 0.500000
vt 0.994141 0.500000
vt 0.068359 0.500000
vt 0.001953 0.500000
vt 0.033203 0.500000
vt 0.986328 0.500000
vt 0.166016 0.500000
vt 0.841797 0.500000
vt 0.623047 0.500000
vt 0.000000 0.000000
s 1
usemtl palette
f 1/1/1 6/1/2 2/1/3
f 5/1/4 1/1/5 2/1/3
f 3/1/5 1/1/5 5/1/4
f 4/1/1 6/1/2 1/1/1
f 6/1/2 4/1/6 7/1/7
f 8/2/8 6/2/2 7/2/7
f 6/3/2 8/3/8 9/3/9
f 9/3/9 8/3/8 11/3/10
f 10/3/11 12/3/12 8/3/8
f 8/3/8 12/3/12 11/3/10
f 14/3/13 12/3/12 10/3/11
f 15/3/14 12/3/12 13/3/15
f 16/3/16 12/3/12 15/3/14
f 11/3/10 12/3/12 16/3/16
f 16/2/16 17/2/17 18/2/18
f 17/3/17 16/3/16 20/3/19
f 19/3/20 16/3/16 15/3/14
f 20/3/19 16/3/16 19/3/20
f 21/3/21 17/3/17 20/3/19
f 19/4/20 22/4/22 20/4/19
f 22/4/23 19/4/20 25/4/24
f 24/4/25 19/4/20 23/4/26
f 25/4/24 19/4/20 24/4/25
f 24/4/27 29/4/28 25/4/27
f 24/5/29 25/5/5 27/5/30
f 25/5/31 24/5/31 26/5/31
f 26/5/32 30/5/33 25/5/1
f 25/4/27 29/4/28 22/4/34
f 27/5/30 25/5/5 28/5/5
f 25/5/1 30/5/33 28/5/1
f 32/3/35 30/3/36 31/3/37
f 28/3/1 30/3/33 33/3/38
f 33/3/39 34/3/40 28/3/41
f 34/3/42 35/3/43 28/3/44
f 35/4/43 36/4/45 28/4/44
f 35/6/43 22/6/34 36/6/46
f 36/6/46 22/6/34 29/6/28
f 38/4/47 303/4/48 29/4/49
f 303/4/25 36/4/46 29/4/28
f 307/6/50 38/6/47 39/6/51
f 29/4/49 39/4/51 38/4/47
f 39/4/52 43/4/52 41/4/53
f 39/4/25 41/4/53 42/4/25
f 43/4/27 39/4/51 29/4/49
f 42/4/27 40/4/54 39/4/55
f 40/4/56 42/4/57 44/4/58
f 44/4/58 13/4/15 40/4/59
f 44/4/58 42/4/57 45/4/26
f 42/4/25 41/4/53 45/4/26
f 15/3/14 13/3/15 41/3/53
f 13/3/15 44/3/58 41/3/53
f 15/3/14 41/3/53 46/3/26
f 41/3/53 44/3/58 45/3/26
f 41/4/53 43/4/52 46/4/26
f 43/4/25 15/4/14 46/4/26
f 29/4/52 24/4/52 15/4/14
f 29/4/25 15/4/14 43/4/25
f 15/4/14 24/4/52 23/4/26
f 40/4/54 48/4/60 47/4/61
f 12/4/12 40/4/59 13/4/15
f 48/4/62 40/4/59 12/4/12
f 40/6/54 47/6/61 49/6/63
f 48/6/64 50/6/65 51/6/5
f 48/4/64 51/4/5 52/4/5
f 52/4/66 47/4/61 48/4/60
f 49/3/63 47/3/61 53/3/67
f 52/3/66 53/3/67 47/3/61
f 55/4/52 54/4/52 56/4/52
f 52/4/5 51/4/5 54/4/5
f 56/4/52 54/4/52 51/4/52
f 57/4/68 56/4/69 60/4/70
f 57/5/25 61/5/25 56/5/71
f 59/5/72 56/5/71 58/5/25
f 56/5/71 61/5/25 58/5/25
f 55/5/73 56/5/71 59/5/72
f 60/4/70 56/4/69 51/4/74
f 61/5/1 62/5/75 66/5/76
f 61/5/1 57/5/1 62/5/75
f 66/5/31 63/5/31 61/5/31
f 61/5/31 63/5/31 58/5/31
f 48/4/64 58/4/27 61/4/27
f 58/4/5 65/4/77 61/4/5
f 50/4/65 61/4/27 64/4/27
f 48/4/64 61/4/27 50/4/65
f 61/4/5 65/4/77 64/4/5
f 63/5/5 66/5/76 67/5/78
f 67/5/78 66/5/76 62/5/75
f 59/5/27 67/5/78 55/5/27
f 67/5/52 59/5/52 63/5/52
f 55/5/27 67/5/78 62/5/75
f 68/3/79 54/3/52 55/3/52
f 55/3/80 62/3/75 68/3/79
f 68/4/79 69/4/81 54/4/52
f 69/4/81 70/4/82 54/4/52
f 69/4/81 68/4/79 71/4/83
f 71/4/83 93/4/84 72/4/85
f 69/4/81 71/4/83 72/4/85
f 68/4/79 62/4/75 71/4/83
f 73/4/86 72/4/85 74/4/87
f 72/4/85 93/4/84 74/4/87
f 69/4/81 72/4/85 75/4/88
f 69/7/81 75/7/88 76/7/89
f 73/4/86 75/4/88 72/4/85
f 77/4/90 75/4/88 73/4/86
f 78/7/91 75/7/88 77/7/90
f 77/4/90 73/4/86 78/4/92
f 80/5/93 78/5/94 79/5/95
f 79/5/95 78/5/94 81/5/96
f 73/4/86 81/4/97 78/4/1
f 81/4/97 82/4/98 79/4/5
f 81/4/97 73/4/86 82/4/98
f 82/4/98 73/4/86 74/4/87
f 83/4/99 84/4/1 82/4/100
f 82/4/100 84/4/1 79/4/1
f 87/5/101 85/5/102 84/5/103
f 85/5/104 79/5/105 84/5/106
f 84/4/103 96/4/107 86/4/108
f 96/4/109 84/4/1 88/4/110
f 88/4/110 84/4/1 83/4/99
f 88/4/110 83/4/99 89/4/111
f 89/4/111 83/4/99 90/4/112
f 91/4/113 90/4/112 92/4/114
f 91/4/113 89/4/111 90/4/112
f 90/4/112 82/4/100 92/4/114
f 83/4/99 82/4/100 90/4/112
f 82/4/98 74/4/87 93/4/84
f 57/3/68 93/3/84 71/3/83
f 93/3/84 57/3/68 60/3/70
f 57/3/1 71/3/83 62/3/75
f 60/4/115 50/4/65 93/4/116
f 50/4/117 82/4/98 93/4/84
f 94/6/118 82/6/98 50/6/117
f 94/6/118 95/6/119 82/6/100
f 82/6/100 95/6/119 92/6/114
f 95/6/120 91/6/113 92/6/114
f 98/4/121 97/4/122 96/4/107
f 98/3/121 34/3/40 33/3/39
f 34/3/40 98/3/121 96/3/107
f 33/4/39 101/4/123 98/4/121
f 102/4/124 33/4/38 99/4/125
f 33/4/1 100/4/126 101/4/127
f 100/4/25 33/4/38 102/4/124
f 102/4/124 103/4/128 100/4/126
f 104/7/129 102/7/124 99/7/125
f 102/7/124 104/7/129 105/7/130
f 106/7/131 104/7/129 107/7/132
f 104/7/129 99/7/125 107/7/132
f 105/7/130 104/7/129 109/7/133
f 109/7/134 108/7/135 105/7/130
f 108/8/135 109/8/134 110/8/136
f 109/8/134 111/8/137 110/8/136
f 112/8/138 111/8/137 109/8/134
f 114/7/139 112/7/138 109/7/134
f 113/7/140 109/7/133 104/7/129
f 114/7/139 109/7/133 113/7/140
f 117/5/141 114/5/139 113/5/140
f 114/7/139 117/7/141 112/7/138
f 112/7/138 117/7/141 118/7/142
f 117/7/141 119/7/143 118/7/142
f 119/7/25 112/7/138 118/7/142
f 120/5/144 112/5/138 122/5/145
f 119/7/25 121/7/25 112/7/138
f 122/5/145 112/5/138 121/5/146
f 123/5/147 122/5/145 121/5/1
f 123/5/147 111/5/137 122/5/145
f 112/5/138 120/5/144 111/5/137
f 122/5/145 111/5/137 120/5/144
f 108/8/148 123/8/147 121/8/1
f 121/7/25 124/7/25 108/7/25
f 125/7/25 124/7/25 121/7/25
f 129/7/149 125/7/150 126/7/151
f 125/7/52 127/7/52 126/7/52
f 128/7/52 127/7/52 125/7/52
f 128/7/25 125/7/25 121/7/25
f 131/7/152 130/7/153 129/7/149
f 129/7/149 130/7/153 125/7/150
f 132/7/154 131/7/152 133/7/155
f 134/7/156 133/7/155 131/7/152
f 131/7/152 132/7/154 130/7/25
f 135/7/157 133/7/155 134/7/156
f 136/7/158 138/7/159 134/7/160
f 134/7/156 131/7/152 137/7/161
f 137/7/1 136/7/158 134/7/160
f 138/7/162 135/7/157 134/7/156
f 136/7/158 141/7/1 139/7/1
f 139/7/163 140/7/164 136/7/158
f 137/7/1 141/7/1 136/7/158
f 141/7/165 127/7/166 139/7/167
f 141/7/165 137/7/168 127/7/166
f 143/7/52 127/7/52 128/7/52
f 142/7/169 139/7/167 127/7/166
f 143/7/52 142/7/52 127/7/52
f 144/7/25 143/7/25 146/7/25
f 128/7/170 145/7/171 143/7/172
f 146/7/25 143/7/25 145/7/171
f 147/7/52 142/7/52 143/7/52
f 147/7/25 143/7/25 144/7/25
f 144/7/173 149/7/174 147/7/175
f 148/7/52 142/7/52 147/7/52
f 147/7/175 149/7/174 148/7/176
f 149/7/174 152/7/177 150/7/178
f 150/7/52 151/7/52 149/7/52
f 151/7/179 148/7/180 149/7/25
f 323/7/181 152/7/177 149/7/174
f 153/7/182 155/7/183 152/7/177
f 152/7/177 155/7/183 154/7/184
f 155/7/183 156/7/185 157/7/186
f 158/7/187 156/7/185 155/7/183
f 156/7/52 158/7/187 160/7/52
f 160/7/52 158/7/187 159/7/188
f 160/7/189 157/7/186 156/7/185
f 160/7/190 161/7/191 157/7/192
f 162/7/190 161/7/191 160/7/190
f 161/7/52 162/7/193 163/7/194
f 163/7/5 165/7/5 161/7/5
f 157/7/192 161/7/191 164/7/195
f 161/7/5 165/7/5 164/7/5
f 165/7/196 167/7/197 166/7/198
f 166/7/199 164/7/200 165/7/52
f 163/7/201 167/7/197 165/7/196
f 167/7/52 163/7/194 168/7/202
f 168/7/202 169/7/203 167/7/197
f 169/7/203 166/7/198 167/7/197
f 166/7/204 171/7/205 170/7/206
f 169/7/207 171/7/205 166/7/204
f 171/7/208 169/7/209 172/7/210
f 171/7/208 172/7/210 170/7/5
f 172/7/210 173/7/211 174/7/212
f 174/7/213 175/7/214 172/7/210
f 172/7/210 175/7/214 170/7/5
f 174/7/213 176/7/215 175/7/214
f 170/7/5 175/7/214 177/7/5
f 178/7/216 177/7/52 175/7/214
f 176/5/215 179/5/217 175/5/214
f 176/7/218 180/7/219 76/7/89
f 76/7/220 181/7/221 176/7/215
f 176/7/215 181/7/221 179/7/217
f 181/7/222 183/7/223 182/7/224
f 182/7/52 179/7/217 181/7/52
f 76/7/89 183/7/223 181/7/222
f 183/7/223 184/7/225 182/7/226
f 184/7/225 183/7/223 78/7/91
f 78/7/1 185/7/227 184/7/228
f 187/7/229 184/7/228 185/7/227
f 186/8/230 182/8/226 184/8/225
f 184/8/1 188/8/231 186/8/1
f 184/7/228 187/7/229 188/7/232
f 189/8/52 190/8/233 182/8/52
f 182/8/234 186/8/235 189/8/236
f 189/8/236 186/8/235 191/8/237
f 190/7/233 178/7/216 179/7/217
f 179/7/217 178/7/216 175/7/214
f 186/8/1 188/8/231 191/8/1
f 191/5/1 188/5/231 192/5/238
f 192/5/238 193/5/239 191/5/237
f 191/5/237 193/5/239 189/5/236
f 193/5/239 190/5/233 189/5/52
f 190/5/233 193/5/239 188/5/231
f 188/5/231 193/5/239 192/5/238
f 188/7/232 194/7/240 197/7/5
f 190/7/233 188/7/232 195/7/5
f 195/7/5 188/7/232 196/7/5
f 196/7/5 188/7/232 197/7/5
f 198/7/170 196/7/241 197/7/172
f 197/7/52 199/7/242 198/7/52
f 201/7/243 199/7/242 197/7/52
f 200/7/244 201/7/243 197/7/52
f 200/7/244 197/7/52 194/7/52
f 201/7/243 202/7/245 205/7/246
f 203/7/52 204/7/247 201/7/243
f 201/7/243 205/7/246 203/7/248
f 201/7/243 204/7/247 199/7/242
f 206/7/249 205/7/246 207/7/250
f 202/7/245 208/7/251 205/7/246
f 209/7/252 207/7/250 208/7/251
f 208/7/251 207/7/250 205/7/246
f 210/7/253 208/7/251 211/7/254
f 210/7/253 209/7/252 208/7/251
f 208/7/251 202/7/245 211/7/254
f 201/7/243 211/7/254 202/7/245
f 200/7/244 211/7/254 201/7/243
f 211/7/255 200/7/256 212/7/257
f 211/7/255 212/7/257 210/7/258
f 210/7/258 212/7/257 213/7/259
f 212/7/257 200/7/256 194/7/260
f 212/7/257 194/7/260 213/7/259
f 213/7/259 194/7/260 214/7/261
f 187/7/262 214/7/263 194/7/1
f 188/7/232 187/7/229 194/7/240
f 214/7/263 215/7/264 213/7/5
f 187/7/262 215/7/264 214/7/263
f 215/7/264 216/7/1 213/7/1
f 219/7/265 216/7/266 217/7/267
f 217/7/267 216/7/266 218/7/268
f 215/5/264 218/5/268 216/5/1
f 220/7/269 219/7/265 217/7/267
f 220/7/269 217/7/267 221/7/270
f 221/7/270 222/7/271 220/7/1
f 224/7/272 223/7/273 222/7/274
f 220/7/1 222/7/271 223/7/1
f 225/7/275 224/7/276 222/7/25
f 222/7/1 227/7/1 225/7/1
f 226/7/277 222/7/271 221/7/270
f 227/7/1 140/7/164 228/7/278
f 228/7/25 229/7/25 227/7/25
f 229/7/279 225/7/275 227/7/280
f 227/7/281 135/7/157 138/7/162
f 227/7/25 230/7/282 135/7/283
f 138/7/1 140/7/164 227/7/1
f 230/7/1 227/7/1 222/7/1
f 222/7/284 231/7/285 230/7/282
f 230/7/282 231/7/285 135/7/283
f 232/7/286 135/7/287 231/7/288
f 226/7/289 233/7/290 231/7/291
f 231/7/292 222/7/271 226/7/277
f 231/7/291 233/7/290 232/7/284
f 234/5/293 232/5/294 233/5/1
f 233/5/290 226/5/289 234/5/25
f 221/5/270 235/5/295 226/5/277
f 226/5/277 235/5/295 234/5/293
f 217/5/267 218/5/268 235/5/295
f 235/5/295 218/5/268 236/5/296
f 218/5/268 187/5/262 79/5/105
f 215/5/264 187/5/262 218/5/268
f 218/5/268 79/5/105 236/5/296
f 235/5/295 236/5/296 234/5/293
f 234/5/293 236/5/296 237/5/297
f 236/5/296 79/5/105 237/5/297
f 232/5/294 237/5/297 85/5/104
f 234/5/293 237/5/297 232/5/294
f 238/5/298 232/5/299 85/5/25
f 239/7/300 238/7/298 133/7/276
f 85/5/1 133/5/155 238/5/1
f 232/7/299 238/7/298 239/7/300
f 135/7/25 239/7/300 133/7/276
f 239/7/1 135/7/287 232/7/286
f 132/5/154 133/5/155 85/5/1
f 85/5/102 87/5/101 132/5/301
f 237/5/297 79/5/105 85/5/104
f 80/5/93 79/5/95 187/5/302
f 78/7/94 80/7/93 185/7/303
f 185/7/303 80/7/93 187/7/302
f 221/7/270 217/7/267 235/7/295
f 140/7/164 240/7/304 228/7/278
f 140/7/164 138/7/159 136/7/158
f 240/7/304 241/7/305 228/7/278
f 139/7/306 241/7/305 240/7/304
f 240/7/304 140/7/164 139/7/163
f 242/7/307 228/7/278 241/7/305
f 228/7/278 242/7/307 243/7/308
f 228/7/278 243/7/308 244/7/309
f 244/7/309 243/7/308 245/7/310
f 224/7/272 245/7/310 246/7/311
f 224/7/272 244/7/1 245/7/310
f 243/7/308 248/7/312 245/7/310
f 246/7/311 245/7/310 247/7/313
f 245/7/310 248/7/312 247/7/313
f 248/7/312 252/7/314 249/7/315
f 248/7/312 251/7/316 250/7/317
f 251/7/316 248/7/312 249/7/315
f 243/7/318 252/7/314 248/7/312
f 253/7/319 254/7/320 252/7/314
f 254/7/320 249/7/315 252/7/314
f 254/7/320 255/7/321 249/7/315
f 257/7/322 255/7/321 254/7/320
f 253/7/319 256/7/323 254/7/320
f 257/7/322 258/7/324 255/7/321
f 256/7/323 258/7/324 257/7/322
f 256/7/323 257/7/322 254/7/320
f 259/7/325 255/7/321 258/7/324
f 260/7/326 258/7/324 256/7/323
f 253/7/319 260/7/326 256/7/323
f 261/7/327 262/7/328 260/7/326
f 262/7/328 258/7/324 260/7/326
f 260/7/326 253/7/319 241/7/329
f 241/7/329 253/7/319 252/7/314
f 148/7/180 261/7/327 260/7/326
f 148/7/180 260/7/326 241/7/329
f 151/7/179 261/7/327 148/7/180
f 148/7/5 241/7/330 263/7/331
f 263/7/52 142/7/52 148/7/52
f 264/7/332 263/7/331 241/7/330
f 142/7/27 263/7/331 264/7/332
f 139/7/1 264/7/332 241/7/330
f 264/7/25 139/7/167 142/7/169
f 261/7/327 265/7/333 262/7/328
f 152/7/334 265/7/333 261/7/327
f 261/7/52 151/7/52 150/7/52
f 261/7/25 150/7/178 152/7/177
f 265/7/52 152/7/177 154/7/184
f 155/7/335 267/7/336 265/7/333
f 265/7/25 154/7/184 155/7/183
f 265/7/333 267/7/336 266/7/337
f 267/7/338 155/7/183 157/7/186
f 157/7/192 164/7/195 267/7/339
f 267/7/339 164/7/195 268/7/340
f 268/7/200 266/7/199 267/7/341
f 268/7/340 269/7/342 270/7/343
f 164/7/195 269/7/342 268/7/340
f 271/7/344 270/7/345 269/7/346
f 270/7/345 271/7/344 272/7/347
f 270/7/345 272/7/347 273/7/5
f 274/7/348 273/7/349 272/7/52
f 272/7/347 271/7/344 274/7/350
f 271/7/5 198/7/351 274/7/348
f 273/7/349 274/7/348 199/7/242
f 274/7/348 198/7/351 199/7/242
f 273/7/349 199/7/242 204/7/247
f 259/7/352 273/7/353 204/7/354
f 255/7/321 204/7/354 249/7/315
f 259/7/352 204/7/354 255/7/321
f 249/7/315 204/7/354 206/7/249
f 259/7/352 270/7/343 273/7/353
f 268/7/340 270/7/343 259/7/352
f 268/7/5 259/7/355 275/7/356
f 275/7/52 266/7/199 268/7/200
f 266/7/357 275/7/356 276/7/358
f 276/7/358 275/7/356 259/7/355
f 259/7/325 258/7/324 276/7/52
f 266/7/357 276/7/358 258/7/359
f 262/7/328 266/7/337 258/7/324
f 265/7/333 266/7/337 262/7/328
f 277/7/5 198/7/351 271/7/5
f 277/7/360 196/7/241 198/7/170
f 177/7/361 195/7/362 277/7/360
f 177/7/5 277/7/5 170/7/5
f 170/7/5 277/7/5 271/7/5
f 277/7/360 195/7/362 196/7/241
f 166/7/204 170/7/206 269/7/363
f 269/7/363 170/7/206 271/7/364
f 269/7/341 164/7/200 166/7/199
f 242/7/307 241/7/305 252/7/365
f 252/7/314 243/7/318 242/7/366
f 251/7/316 249/7/315 206/7/367
f 206/7/368 250/7/369 251/7/370
f 207/7/25 250/7/369 206/7/368
f 250/7/317 207/7/250 278/7/371
f 278/7/371 207/7/250 209/7/252
f 278/7/372 210/7/258 279/7/373
f 210/7/374 278/7/371 209/7/252
f 280/7/375 278/7/376 246/7/311
f 278/7/371 280/7/377 250/7/317
f 246/7/311 278/7/376 223/7/273
f 279/7/373 223/7/1 278/7/372
f 220/7/1 223/7/1 279/7/373
f 279/7/373 219/7/265 220/7/269
f 279/7/373 210/7/258 219/7/265
f 210/7/258 213/7/259 219/7/265
f 250/7/317 280/7/377 247/7/313
f 246/7/311 247/7/313 280/7/377
f 248/7/312 250/7/317 247/7/313
f 246/7/311 223/7/273 224/7/272
f 224/7/276 225/7/275 229/7/279
f 229/7/1 244/7/1 224/7/272
f 244/7/25 229/7/25 228/7/25
f 219/7/265 213/7/259 216/7/266
f 206/7/249 203/7/248 205/7/246
f 204/7/354 203/7/248 206/7/249
f 195/7/52 177/7/52 178/7/216
f 178/7/216 190/7/233 195/7/5
f 190/7/233 179/7/217 182/7/52
f 75/7/88 183/7/223 76/7/89
f 78/7/91 183/7/223 75/7/88
f 180/7/219 281/7/378 76/7/89
f 282/7/379 281/7/378 180/7/219
f 284/5/380 282/5/379 180/5/219
f 281/7/52 282/7/52 283/7/381
f 70/7/82 283/7/382 52/7/383
f 69/7/81 283/7/382 70/7/82
f 283/7/382 69/7/81 76/7/89
f 283/7/382 76/7/89 281/7/378
f 286/7/384 285/7/385 283/7/381
f 285/7/386 52/7/387 283/7/388
f 286/5/384 287/5/389 288/5/390
f 287/5/389 286/5/384 282/5/391
f 283/5/381 282/5/52 286/5/384
f 288/5/390 292/5/392 289/5/393
f 288/7/390 289/7/393 290/7/394
f 293/4/395 288/4/390 290/4/394
f 294/4/396 288/4/390 293/4/395
f 288/5/390 287/5/389 291/5/397
f 286/4/384 288/4/390 294/4/396
f 293/4/395 295/4/398 294/4/396
f 294/4/396 296/4/399 286/4/384
f 296/7/399 285/7/385 286/7/384
f 296/7/399 297/7/400 285/7/385
f 297/7/400 52/7/387 285/7/386
f 298/7/401 299/7/402 297/7/400
f 299/7/402 52/7/387 297/7/400
f 296/7/399 49/7/63 297/7/400
f 297/7/400 49/7/63 298/7/401
f 52/7/66 299/7/402 53/7/67
f 53/7/67 299/7/402 49/7/63
f 299/7/402 298/7/401 49/7/63
f 295/4/398 296/4/399 294/4/396
f 296/4/52 295/4/398 49/4/63
f 49/3/63 295/3/398 300/3/403
f 49/3/63 300/3/403 40/3/54
f 40/3/54 300/3/403 307/3/404
f 300/4/403 301/4/405 307/4/404
f 301/4/406 300/4/403 290/4/394
f 290/4/394 300/4/403 293/4/395
f 289/7/393 301/7/406 290/7/394
f 302/7/407 301/7/406 289/7/393
f 289/7/25 303/7/408 302/7/407
f 99/7/125 303/7/31 107/7/132
f 303/7/52 106/7/409 107/7/52
f 289/7/393 106/7/409 303/7/52
f 304/4/25 36/4/46 303/4/25
f 304/7/280 303/7/31 99/7/125
f 303/7/48 307/7/50 305/7/410
f 308/7/411 303/7/408 305/7/410
f 302/7/407 303/7/408 308/7/411
f 306/7/412 307/7/50 303/7/48
f 308/7/411 305/7/410 309/7/413
f 309/7/413 307/7/404 308/7/411
f 307/7/50 309/7/413 305/7/410
f 306/3/412 38/3/47 307/3/50
f 308/7/411 307/7/404 301/7/405
f 306/3/412 303/3/48 38/3/47
f 302/7/407 308/7/411 301/7/406
f 36/3/45 32/3/414 27/3/30
f 27/3/30 32/3/414 31/3/415
f 31/5/37 310/5/416 24/5/417
f 24/5/29 27/5/30 31/5/415
f 24/5/417 310/5/416 311/5/52
f 310/5/418 26/5/32 311/5/25
f 30/5/33 26/5/32 310/5/418
f 310/5/416 31/5/37 30/5/36
f 26/5/31 24/5/31 311/5/31
f 304/4/52 99/4/125 36/4/45
f 36/4/45 99/4/125 32/4/414
f 32/4/414 99/4/125 312/4/419
f 312/4/419 99/4/125 33/4/38
f 30/4/33 312/4/419 33/4/38
f 312/4/420 30/4/36 32/4/35
f 300/4/403 295/4/398 293/4/395
f 292/7/392 106/7/409 289/7/393
f 106/7/131 292/7/421 104/7/129
f 288/5/390 291/5/397 292/5/392
f 104/7/129 292/7/421 116/7/422
f 116/7/422 113/7/140 104/7/52
f 291/5/397 313/5/423 292/5/392
f 313/5/25 116/5/422 292/5/421
f 313/5/27 314/5/424 115/5/425
f 314/5/424 313/5/423 291/5/397
f 115/5/426 116/5/422 313/5/25
f 315/7/427 316/7/428 313/7/429
f 313/7/5 115/7/430 315/7/431
f 113/7/140 313/7/432 117/7/141
f 313/7/429 316/7/428 117/7/141
f 115/7/426 313/7/432 113/7/140
f 315/7/433 317/7/434 316/7/428
f 319/7/435 117/7/141 316/7/428
f 319/7/435 316/7/428 318/7/436
f 319/7/437 321/7/438 320/7/439
f 318/7/436 321/7/438 319/7/437
f 119/7/440 319/7/441 322/7/442
f 319/7/435 119/7/143 117/7/141
f 322/7/442 319/7/441 145/7/171
f 146/7/25 145/7/171 319/7/441
f 128/7/25 121/7/25 322/7/25
f 322/7/442 145/7/171 128/7/170
f 146/7/443 320/7/439 323/7/181
f 319/7/437 320/7/439 146/7/443
f 144/7/173 323/7/181 149/7/174
f 320/7/439 153/7/182 323/7/181
f 323/7/181 153/7/182 152/7/177
f 146/7/443 323/7/181 144/7/173
f 324/7/444 158/7/187 153/7/182
f 153/7/182 158/7/187 155/7/183
f 320/7/439 325/7/445 153/7/182
f 324/7/444 153/7/182 325/7/25
f 327/7/446 324/7/444 325/7/447
f 326/7/448 325/7/445 320/7/439
f 329/7/449 327/7/446 328/7/450
f 328/7/450 327/7/446 325/7/447
f 329/7/449 330/7/451 327/7/446
f 330/7/451 324/7/444 327/7/446
f 159/7/188 330/7/451 329/7/449
f 331/7/452 332/7/453 159/7/188
f 159/7/52 329/7/454 333/7/455
f 333/7/5 331/7/452 159/7/188
f 331/7/452 333/7/455 335/7/456
f 334/5/457 331/5/452 335/5/456
f 335/7/456 333/7/455 329/7/454
f 335/7/456 328/7/458 336/7/459
f 328/7/460 335/7/456 329/7/454
f 336/7/459 328/7/458 337/7/461
f 336/7/459 337/7/461 315/7/433
f 336/2/459 315/2/462 338/2/463
f 335/2/456 336/2/459 338/2/463
f 339/9/464 314/9/424 338/9/463
f 339/2/464 338/2/463 315/2/462
f 335/9/456 338/9/463 314/9/424
f 314/4/424 339/4/464 115/4/425
f 315/7/431 115/7/430 339/7/465
f 315/7/433 337/7/461 317/7/434
f 337/7/466 321/7/438 317/7/434
f 321/7/438 318/7/436 317/7/434
f 337/7/466 340/7/467 321/7/438
f 326/7/448 321/7/438 340/7/467
f 340/7/468 337/7/469 325/7/470
f 325/7/445 326/7/448 340/7/467
f 325/7/470 337/7/469 328/7/471
f 335/5/456 314/5/424 291/5/397
f 342/9/472 341/9/473 335/9/456
f 341/5/473 334/5/457 335/5/456
f 287/5/474 335/5/456 291/5/397
f 342/5/472 335/5/456 287/5/474
f 284/5/475 342/5/472 287/5/474
f 343/5/476 342/5/472 284/5/475
f 284/5/380 180/5/219 343/5/5
f 344/7/477 174/7/31 343/7/31
f 174/7/212 173/7/211 343/7/52
f 173/7/211 344/7/478 343/7/25
f 342/5/472 343/5/476 344/5/27
f 343/5/5 180/5/219 344/5/477
f 176/7/218 174/7/31 344/7/477
f 344/5/477 180/5/219 176/5/218
f 345/7/479 344/7/478 173/7/211
f 344/4/478 345/4/479 342/4/480
f 341/9/473 342/9/472 345/9/481
f 345/2/479 173/2/211 341/2/473
f 341/7/473 348/7/482 347/7/483
f 173/7/211 348/7/482 341/7/473
f 172/7/210 169/7/209 348/7/482
f 169/7/209 347/7/483 348/7/482
f 169/7/203 168/7/202 347/7/483
f 173/7/211 172/7/210 348/7/482
f 163/7/194 347/7/483 168/7/202
f 346/7/484 347/7/483 349/7/485
f 341/7/473 347/7/483 346/7/484
f 334/7/457 349/7/485 332/7/453
f 349/7/485 163/7/194 350/7/486
f 347/7/483 163/7/194 349/7/485
f 346/7/484 349/7/485 334/7/457
f 349/7/485 350/7/486 332/7/453
f 332/7/453 350/7/486 162/7/193
f 163/7/194 162/7/193 350/7/486
f 346/5/484 334/5/457 341/5/473
f 334/7/457 332/7/453 331/7/452
f 160/7/52 159/7/188 332/7/453
f 160/7/487 332/7/453 162/7/193
f 158/7/187 330/7/451 159/7/188
f 324/7/444 330/7/451 158/7/187
f 326/7/448 320/7/439 321/7/438
f 322/7/25 121/7/25 119/7/25
f 317/7/434 318/7/436 316/7/428
f 282/5/379 284/5/380 287/5/488
f 52/4/5 54/4/5 70/4/5
f 137/7/161 129/7/149 126/7/151
f 137/7/161 131/7/152 129/7/149
f 127/7/166 137/7/168 126/7/489
f 132/7/301 87/7/101 351/7/490
f 130/7/25 132/7/154 351/7/25
f 84/7/103 351/7/491 87/7/101
f 351/7/1 125/7/1 130/7/1
f 124/7/1 125/7/1 351/7/1
f 351/7/491 352/7/492 124/7/493
f 352/7/492 351/7/491 353/7/494
f 84/7/103 353/7/494 351/7/491
f 101/4/1 353/4/494 86/4/108
f 353/4/495 101/4/127 103/4/128
f 84/5/103 86/5/108 353/5/494
f 97/4/122 86/4/108 96/4/107
f 101/4/123 86/4/108 97/4/122
f 353/7/495 103/7/128 108/7/135
f 108/7/135 103/7/128 102/7/124
f 100/4/126 103/4/128 101/4/127
f 353/7/495 108/7/135 352/7/1
f 124/7/493 352/7/492 108/7/496
f 110/8/497 123/8/147 108/8/148
f 123/8/147 110/8/136 111/8/137
f 113/5/140 116/5/422 115/5/426
f 108/7/135 102/7/124 105/7/130
f 98/4/121 101/4/123 97/4/122
f 22/4/498 34/4/40 96/4/107
f 34/4/42 22/4/34 35/4/43
f 37/6/499 22/6/498 96/6/107
f 96/6/500 91/6/501 37/6/499
f 354/4/502 95/4/119 357/4/503
f 354/4/502 355/4/504 95/4/120
f 91/4/113 95/4/120 356/4/505
f 357/4/503 95/4/119 50/4/117
f 94/4/118 50/4/117 95/4/119
f 358/4/506 357/4/503 50/4/117
f 358/4/506 50/4/507 65/4/77
f 65/3/77 359/3/508 358/3/506
f 58/4/509 48/4/510 359/4/508
f 359/4/508 48/4/510 14/4/13
f 359/4/508 65/4/77 58/4/5
f 12/4/12 14/4/13 48/4/510
f 2/3/3 359/3/508 14/3/13
f 358/3/506 359/3/508 2/3/3
f 2/3/3 14/3/13 10/3/11
f 21/3/21 2/3/3 6/3/2
f 21/3/21 358/3/506 2/3/3
f 357/3/503 358/3/506 354/3/502
f 360/3/511 358/3/506 21/3/21
f 354/3/502 358/3/506 360/3/511
f 361/3/512 354/3/502 360/3/511
f 355/3/504 354/3/502 361/3/512
f 91/4/513 361/4/512 360/4/511
f 361/4/512 356/4/505 355/4/504
f 356/4/514 361/4/512 91/4/513
f 21/4/21 91/4/513 360/4/511
f 22/4/498 37/4/499 91/4/501
f 91/4/515 21/4/21 22/4/22
f 22/4/22 21/4/21 20/4/19
f 355/4/504 356/4/505 95/4/120
f 96/4/109 88/4/110 362/4/516
f 362/4/517 91/4/501 96/4/500
f 91/4/113 362/4/1 89/4/111
f 362/4/516 88/4/110 89/4/111
f 65/4/77 50/4/507 64/4/518
f 63/5/52 59/5/52 58/5/52
f 51/6/5 50/6/65 60/6/115
f 40/6/54 307/6/404 39/6/55
f 28/4/44 36/4/45 27/4/30
f 19/3/20 15/3/14 23/3/26
f 21/3/21 9/3/9 17/3/17
f 21/3/21 6/3/2 9/3/9
f 363/2/519 11/2/10 18/2/18
f 18/2/18 11/2/10 16/2/16
f 17/1/17 364/1/25 18/1/18
f 366/1/5 365/1/5 363/1/519
f 363/1/520 367/1/521 366/1/522
f 367/1/523 363/1/519 18/1/18
f 366/1/522 367/1/521 368/1/52
f 367/1/25 364/1/25 368/1/25
f 18/1/18 364/1/25 367/1/25
f 369/1/524 5/1/4 7/1/7
f 7/1/7 4/1/6 369/1/525
f 5/1/526 369/1/525 3/1/527
f 365/1/1 17/1/17 9/1/9
f 363/1/519 365/1/5 9/1/9
f 364/1/1 17/1/17 365/1/1
f 363/2/519 9/2/9 11/2/10
f 7/2/7 10/2/11 8/2/8
f 5/2/4 2/2/3 10/2/11
f 5/2/4 10/2/11 7/2/7
f 3/10/527 4/10/6 1/10/31
f 3/10/527 369/10/525 4/10/6
f 368/10/31 364/10/31 365/10/31
f 368/10/31 365/10/31 366/10/31
