# Blender 5.2.0 LTS
# www.blender.org
mtllib Frieren_LOD2.mtl
o Frieren_LOD2
v 2.584339 -0.054741 2.583592
v 2.534339 -0.014741 2.983593
v 2.684338 0.125259 2.908592
v 2.434339 0.265259 2.583592
v 2.455768 0.213830 2.950259
v 2.707868 0.255259 3.095357
v 2.828784 0.265259 2.983593
v 2.084339 0.259105 2.983593
v 2.184338 0.082402 2.933593
v 2.070053 0.265259 2.583592
v 2.148624 0.265259 2.452823
v 2.101986 0.505259 2.583592
v 1.984339 0.505259 2.983593
v 1.984339 0.505259 2.683592
v 1.846839 0.649259 2.683592
v 2.044339 0.718592 2.652342
v 2.142233 0.505259 2.983593
v 2.036971 0.721259 2.889843
v 1.956561 0.945259 2.891926
v 1.977196 0.925259 2.683592
v 2.168954 0.470973 3.126450
v 2.684338 0.505259 3.085815
v 2.139894 0.265259 3.083592
v 2.731958 0.505259 2.988354
v 2.714338 0.851925 3.095592
v 2.819339 0.470973 2.577710
v 2.831707 0.715259 2.894704
v 2.780172 0.962402 2.983593
v 2.884339 0.505259 2.983593
v 2.884339 0.505259 2.683592
v 3.021839 0.685259 2.683592
v 3.084339 0.665259 2.983593
v 2.909339 0.945259 2.883592
v 2.891006 0.958592 2.683592
v 2.795450 1.029703 2.625259
v 2.851006 1.136838 2.743592
v 2.671295 1.095259 2.592967
v 2.211611 1.183154 2.547229
v 2.124338 1.130713 2.683592
v 2.661261 1.005259 2.483592
v 2.178782 0.505259 2.473593
v 2.841482 0.718592 2.639148
v 2.684338 0.505259 2.508592
v 2.214338 1.017259 2.561370
v 2.041482 1.028895 2.616926
v 2.021839 1.118592 2.783592
v 1.954339 1.195259 2.883592
v 1.906561 1.198592 2.669307
v 1.870053 1.225259 2.769307
v 1.947975 1.497259 2.783592
v 1.980172 1.422182 2.933592
v 2.084339 1.385259 2.983592
v 2.067672 1.225259 2.952823
v 1.884339 1.805259 2.923592
v 1.744339 1.491925 2.735973
v 1.879076 1.465259 2.633592
v 1.851006 2.065259 2.583592
v 1.951006 1.865259 2.583592
v 1.920703 1.430973 2.475259
v 1.984339 1.207481 2.539148
v 2.024339 1.433259 2.374501
v 1.927196 1.865259 2.329047
v 1.875248 2.095259 2.343592
v 2.044339 2.007481 2.883592
v 2.070053 2.095259 2.583592
v 2.244339 2.124082 2.923592
v 2.284339 1.996168 3.129047
v 2.601006 1.961259 3.197878
v 2.634339 1.985259 3.083592
v 2.511612 1.857259 3.247878
v 2.734339 1.833259 3.283592
v 2.751005 1.838592 3.083592
v 2.706561 1.705259 3.223592
v 2.904339 1.805259 3.055021
v 2.826006 1.615259 3.176926
v 2.734339 1.578592 3.072878
v 2.899724 1.445259 3.023592
v 2.879339 1.305259 2.875259
v 2.920703 1.485259 2.783592
v 3.001006 1.198592 2.816926
v 2.968955 1.203037 2.616926
v 2.989602 1.465259 2.641926
v 3.124339 1.491925 2.736533
v 2.924339 1.825259 2.883592
v 2.917672 1.865259 2.583592
v 2.798625 2.085259 2.583592
v 3.017673 2.089259 2.583592
v 2.993430 2.082402 2.369307
v 2.744339 2.099105 2.373592
v 2.941482 1.865259 2.333592
v 2.824339 1.414350 2.383592
v 3.024339 1.453830 2.433592
v 2.857066 1.329874 2.495357
v 2.634339 1.265259 2.383592
v 2.634339 1.318592 2.283592
v 2.109339 1.465259 2.279244
v 2.184338 1.513259 2.200259
v 2.141481 1.994490 2.242683
v 2.151005 1.315925 2.419307
v 2.284339 1.234148 2.333592
v 2.651005 1.196168 2.483592
v 2.124339 2.095259 2.365411
v 2.724339 1.525259 2.183592
v 2.727196 2.002402 2.256320
v 2.617672 2.137259 2.450259
v 2.670053 2.138592 2.883592
v 2.251005 2.145259 2.450259
v 2.601006 2.105259 2.983592
v 2.744339 1.977259 2.974501
v 2.844339 1.910973 3.003592
v 2.834339 2.025259 2.883592
v 2.773228 1.483037 2.283592
v 2.793430 1.225259 2.943592
v 2.709338 1.265259 3.075900
v 2.646838 1.042402 2.983593
v 2.184338 1.185259 3.022481
v 2.212910 1.048116 2.983593
v 2.584339 1.056370 3.083592
v 2.741482 1.007077 3.113592
v 2.196838 0.970713 3.076926
v 2.104339 0.998592 3.133592
v 2.084339 0.953259 2.974502
v 2.098625 0.838592 3.133592
v 1.784339 0.665259 2.983593
v 2.084339 1.385259 3.083592
v 2.184338 1.385259 3.043592
v 2.117672 1.563037 3.058592
v 2.021839 1.558592 3.158592
v 2.076006 1.749703 3.223592
v 1.984339 1.836168 2.983592
v 2.134339 1.905259 3.083592
v 2.134339 1.985259 2.983592
v 2.184338 1.881259 3.283592
v 2.295450 1.811925 3.229047
v 2.198624 1.705259 3.183592
v 2.384339 1.899544 3.216926
v 2.434339 1.825259 3.083592
v 2.234339 1.718592 3.083592
v 2.784339 1.385259 3.083592
v 2.784339 1.385259 2.983592
v 2.584339 1.767481 3.138138
v 2.684338 0.265259 2.428037
v 2.753570 0.265259 2.545131
v 2.384339 0.089259 2.933593
v 2.284338 -0.054741 2.583592
vn -0.0250 -0.8596 -0.5104
vn -0.0217 -0.8742 -0.4851
vn 0.7549 -0.4347 -0.4911
vn 0.7416 -0.5314 0.4095
vn -0.4144 -0.9092 0.0391
vn -0.0848 -0.8043 0.5882
vn 0.4035 -0.4592 0.7914
vn -0.7527 -0.4814 0.4490
vn -0.8060 -0.4062 -0.4306
vn -0.4268 -0.6823 0.5935
vn -0.8251 0.1907 -0.5318
vn -0.9309 -0.2071 -0.3010
vn -0.7379 -0.2866 0.6110
vn -0.0000 1.0000 -0.0000
vn -0.9222 0.2808 0.2660
vn 0.2709 -0.7107 0.6492
vn 0.9676 -0.2521 0.0171
vn -0.5896 -0.0865 0.8030
vn -0.6225 -0.5944 -0.5090
vn -0.8434 -0.1050 -0.5270
vn -0.4520 -0.1251 -0.8832
vn -0.8787 0.0512 0.4745
vn -0.8316 0.2098 -0.5142
vn -0.4875 -0.1845 0.8534
vn 0.1908 0.2518 0.9488
vn -0.5538 0.0544 0.8309
vn 0.5316 0.0265 0.8466
vn -0.4489 -0.6139 0.6493
vn -0.0000 -0.0000 1.0000
vn 0.8919 0.1992 0.4060
vn 0.4991 -0.0861 0.8623
vn 0.8403 -0.0367 -0.5409
vn 0.5835 -0.0082 0.8121
vn 0.7263 0.1294 0.6751
vn 0.4705 -0.0089 -0.8824
vn -0.9748 -0.2221 -0.0221
vn -0.8028 0.0503 0.5941
vn 0.6378 -0.5913 -0.4936
vn 0.8573 0.0020 -0.5148
vn 0.7771 0.2113 0.5928
vn 0.6247 -0.7809 -0.0000
vn 0.8533 0.3177 -0.4134
vn 0.9436 -0.3066 -0.1252
vn 0.8796 0.0715 0.4704
vn 0.7976 0.2661 -0.5413
vn 0.4680 0.2485 -0.8481
vn 0.8684 -0.4340 -0.2399
vn 0.7219 -0.1476 0.6761
vn 0.6535 -0.5698 -0.4983
vn 0.3756 -0.1871 -0.9077
vn -0.2751 -0.6633 -0.6959
vn -0.3124 0.1345 -0.9404
vn -0.5892 -0.2361 -0.7727
vn 0.5302 0.3642 -0.7657
vn -0.4574 0.1459 -0.8772
vn 0.3518 0.1220 -0.9281
vn -0.5799 0.3397 -0.7405
vn -0.8913 -0.2644 -0.3684
vn -0.8036 -0.2383 0.5453
vn -0.5617 -0.1664 0.8104
vn -0.8169 -0.5135 0.2625
vn -0.6811 -0.6578 -0.3215
vn -0.8812 0.0117 0.4726
vn -0.8639 0.4864 0.1306
vn -0.8612 -0.1748 0.4772
vn -0.8224 0.3901 0.4141
vn -0.9334 0.0650 -0.3529
vn -0.2327 0.1267 0.9643
vn -0.6716 0.4733 0.5700
vn -0.4840 -0.6566 -0.5785
vn -0.8190 -0.3078 -0.4842
vn -0.4892 -0.6411 -0.5914
vn -0.5817 -0.4992 -0.6422
vn -0.6319 -0.1128 -0.7668
vn -0.6350 0.5989 -0.4879
vn -0.7179 0.6174 0.3216
vn -0.8440 0.5302 0.0804
vn -0.7596 0.4424 0.4767
vn -0.3810 0.8989 0.2163
vn -0.5485 0.6278 0.5523
vn -0.2765 0.9009 0.3346
vn -0.6209 0.6626 0.4188
vn -0.2174 0.7968 0.5638
vn 0.3368 0.8455 0.4145
vn 0.4347 0.7234 0.5365
vn 0.1313 0.0517 0.9900
vn -0.0861 0.4908 0.8670
vn -0.2873 -0.2908 0.9126
vn 0.4364 0.2268 0.8707
vn 0.7377 0.5212 0.4290
vn -0.3968 -0.5136 0.7607
vn 0.3718 -0.3961 0.8395
vn 0.7601 0.3450 0.5507
vn 0.2612 0.4870 0.8334
vn -0.2048 -0.4181 0.8850
vn 0.7635 -0.3836 0.5195
vn 0.8458 0.0525 0.5310
vn 0.5898 -0.5730 0.5690
vn 0.8256 0.5540 0.1070
vn 0.9585 0.1122 -0.2623
vn 0.9230 0.3742 0.0898
vn 0.5176 0.2941 0.8035
vn 0.6018 0.5851 0.5436
vn 0.3794 0.9027 0.2029
vn 0.0796 0.9240 -0.3740
vn 0.6247 0.6004 -0.4993
vn 0.1598 0.4221 -0.8923
vn 0.5083 -0.0349 -0.8604
vn 0.5070 -0.5132 -0.6925
vn 0.7926 -0.4364 -0.4258
vn 0.5376 -0.5637 -0.6271
vn 0.3362 -0.7823 -0.5243
vn 0.2090 -0.7471 -0.6310
vn 0.2611 -0.5256 -0.8097
vn -0.2890 -0.4002 -0.8697
vn 0.5851 -0.3719 -0.7207
vn -0.4838 -0.4097 -0.7734
vn -0.2363 -0.7229 -0.6494
vn -0.1380 0.3898 -0.9105
vn -0.0486 0.9178 -0.3940
vn 0.4295 -0.3934 -0.8129
vn -0.0950 0.9694 -0.2264
vn 0.1027 0.9742 -0.2008
vn 0.3182 0.9025 0.2901
vn 0.2363 0.7992 0.5526
vn 0.4365 0.7051 0.5589
vn 0.3458 0.7620 0.5476
vn 0.2795 0.7068 0.6499
vn 0.7494 0.5404 0.3826
vn 0.7883 0.5556 0.2644
vn 0.4389 0.3491 0.8279
vn 0.6631 -0.1175 0.7393
vn 0.2735 0.8983 0.3439
vn 0.5474 0.4475 0.7072
vn 0.1779 -0.4054 0.8966
vn 0.3390 -0.2692 0.9015
vn -0.2733 -0.3039 0.9127
vn -0.1446 -0.1557 0.9772
vn 0.0208 0.8224 0.5686
vn 0.0269 0.7786 0.6269
vn -0.3703 0.5526 0.7467
vn -0.5794 0.8002 -0.1552
vn -0.8416 0.5381 -0.0475
vn -0.1932 -0.8808 0.4322
vn -0.7942 0.2143 0.5686
vn -0.5139 -0.1939 0.8357
vn -0.0620 0.0100 0.9980
vn 0.4384 0.3985 0.8056
vn -0.7982 -0.4738 0.3721
vn 0.4202 -0.3624 0.8319
vn -0.4400 -0.3733 0.8167
vn -0.4391 -0.6784 0.5890
vn 0.9829 -0.1843 -0.0000
vn -0.5293 0.0240 0.8481
vn -0.2866 0.3212 0.9026
vn 0.4881 -0.6329 0.6010
vn 0.4190 -0.5524 0.7207
vn -0.0226 -0.6302 0.7761
vn 0.4398 -0.5301 0.7250
vn 0.2210 0.6605 0.7175
vn 0.7601 -0.5283 0.3783
vn 0.4614 -0.8872 -0.0000
vn 0.3927 0.1518 0.9070
vn 0.3322 -0.3233 0.8861
vn -0.9681 -0.2504 -0.0000
vn -0.8480 0.5300 -0.0000
vn -0.4654 -0.6685 0.5801
vn 0.4056 -0.5086 -0.7595
vn 0.7094 -0.6045 0.3624
vn 0.0312 -0.0072 0.9995
vn 0.2601 0.0859 0.9617
vn -0.4271 -0.5673 -0.7041
vn 0.4953 -0.6281 0.6001
vn 0.0494 -0.8552 -0.5160
vn 0.2587 0.2259 0.9392
vt 0.373047 0.500000
vt 0.068359 0.500000
vt 0.994141 0.500000
vt 0.001953 0.500000
vt 0.033203 0.500000
vt 0.986328 0.500000
vt 0.166016 0.500000
vt 0.841797 0.500000
vt 0.623047 0.500000
vt 0.000000 0.000000
s 1
usemtl palette.001
f 1/1/1 4/1/2 143/1/3
f 3/1/4 1/1/1 143/1/3
f 2/1/5 1/1/1 3/1/4
f 4/1/2 1/1/1 5/1/6
f 5/2/6 6/2/7 8/2/8
f 8/3/8 10/3/9 9/3/10
f 12/4/11 10/4/9 14/4/12
f 13/4/13 10/4/9 8/4/8
f 14/4/12 10/4/9 13/4/13
f 13/4/14 17/4/15 14/4/14
f 13/5/16 14/5/17 18/5/18
f 14/5/19 13/5/16 15/5/20
f 14/4/14 17/4/15 12/4/11
f 18/5/18 14/5/17 16/5/21
f 14/5/19 15/5/20 16/5/21
f 19/2/22 15/2/20 18/2/18
f 16/2/21 15/2/20 20/2/23
f 16/6/21 12/6/11 18/6/18
f 18/6/18 12/6/11 17/6/15
f 122/4/24 18/4/18 17/4/15
f 120/6/25 17/6/15 21/6/26
f 22/4/27 21/4/26 6/4/7
f 8/2/8 6/2/7 23/2/28
f 23/2/28 6/2/7 21/2/26
f 21/4/26 8/4/8 23/4/28
f 17/4/29 13/4/13 8/4/8
f 17/4/15 8/4/8 21/4/26
f 24/4/30 22/4/27 6/4/7
f 22/6/27 24/6/30 25/6/31
f 24/6/30 26/6/32 27/6/33
f 24/4/30 27/4/33 28/4/34
f 25/2/31 24/2/30 28/2/34
f 42/5/35 30/5/36 27/5/33
f 27/5/33 30/5/36 29/5/37
f 30/5/38 42/5/35 31/5/39
f 31/5/39 32/5/40 30/5/38
f 30/5/38 32/5/40 29/5/41
f 24/4/30 29/4/14 30/4/42
f 29/4/43 26/4/32 30/4/42
f 24/4/30 30/4/42 26/4/32
f 27/5/33 32/5/40 31/5/39
f 27/2/33 31/2/39 33/2/44
f 33/4/44 31/4/39 34/4/45
f 34/4/45 42/4/35 35/4/46
f 33/4/44 34/4/45 36/4/47
f 33/7/44 36/7/47 78/7/48
f 35/4/46 36/4/47 34/4/45
f 81/5/49 36/5/47 37/5/50
f 35/4/46 37/4/50 36/4/47
f 38/4/51 44/4/52 39/4/53
f 44/4/52 38/4/51 37/4/50
f 44/4/52 37/4/50 40/4/54
f 41/4/55 44/4/52 40/4/54
f 37/4/50 35/4/46 42/4/35
f 42/2/35 34/2/45 31/2/39
f 26/4/32 37/4/50 42/4/35
f 43/6/56 37/6/50 26/6/32
f 37/6/50 43/6/56 40/6/54
f 43/6/56 41/6/55 40/6/54
f 45/2/57 16/2/21 20/2/23
f 16/2/21 45/2/57 44/2/52
f 46/4/58 20/4/23 19/4/22
f 45/4/57 20/4/23 46/4/58
f 47/7/59 46/7/58 19/7/22
f 53/7/60 47/7/59 19/7/22
f 49/7/61 48/7/62 47/7/59
f 50/8/63 55/8/64 49/8/61
f 51/7/65 49/7/61 47/7/59
f 50/7/63 49/7/61 51/7/65
f 54/7/66 50/7/63 51/7/65
f 54/7/66 56/7/67 50/7/63
f 55/5/64 50/5/63 56/5/67
f 48/8/62 55/8/64 56/8/67
f 58/7/68 57/7/69 56/7/67
f 60/7/70 59/7/71 99/7/72
f 61/7/73 99/7/72 59/7/71
f 59/7/71 62/7/74 61/7/73
f 59/7/71 63/7/75 62/7/74
f 63/7/75 59/7/71 57/7/69
f 64/7/76 58/7/77 130/7/78
f 65/7/79 57/7/69 58/7/68
f 65/7/79 58/7/77 64/7/76
f 64/7/76 132/7/80 66/7/81
f 131/7/82 67/7/83 132/7/80
f 132/7/80 67/7/83 66/7/81
f 67/7/83 68/7/84 69/7/85
f 68/7/84 67/7/83 136/7/86
f 68/7/87 70/7/88 71/7/89
f 71/7/89 72/7/90 68/7/84
f 68/7/84 72/7/90 69/7/85
f 73/7/91 75/7/92 71/7/89
f 75/7/92 72/7/90 71/7/89
f 75/7/92 74/7/93 72/7/94
f 75/7/92 76/7/95 77/7/96
f 75/7/92 77/7/96 74/7/93
f 78/5/48 79/5/97 77/5/96
f 80/7/98 79/7/97 78/7/48
f 81/7/49 80/7/98 36/7/47
f 83/8/99 79/8/97 80/8/98
f 80/8/98 81/8/49 83/8/99
f 81/8/49 82/8/100 83/8/99
f 79/5/97 83/5/99 82/5/100
f 79/7/97 82/7/100 74/7/93
f 74/7/93 82/7/100 84/7/101
f 84/7/101 82/7/100 85/7/102
f 87/7/103 86/7/104 85/7/102
f 82/7/100 87/7/103 85/7/102
f 89/7/105 88/7/106 104/7/107
f 90/7/108 104/7/107 88/7/106
f 91/7/109 90/7/108 92/7/110
f 90/7/108 88/7/106 92/7/110
f 87/7/103 92/7/110 88/7/106
f 82/7/100 92/7/110 87/7/103
f 91/7/109 92/7/110 93/7/111
f 92/7/110 82/7/100 93/7/111
f 81/7/49 93/7/111 82/7/100
f 91/7/109 93/7/111 94/7/112
f 94/7/112 93/7/111 101/7/113
f 95/7/114 91/7/109 94/7/112
f 97/7/115 112/7/116 96/7/117
f 95/7/114 96/7/117 112/7/116
f 100/7/118 96/7/117 95/7/114
f 96/7/117 62/7/74 98/7/119
f 61/7/73 62/7/74 96/7/117
f 96/7/117 99/7/72 61/7/73
f 99/7/72 96/7/117 100/7/118
f 95/5/114 94/5/112 100/5/118
f 101/5/113 81/5/49 37/5/50
f 93/5/111 81/5/49 101/5/113
f 94/5/112 101/5/113 100/5/118
f 100/5/118 101/5/113 38/5/51
f 101/5/113 37/5/50 38/5/51
f 100/5/118 38/5/51 99/5/72
f 60/5/70 99/5/72 38/5/51
f 62/7/74 63/7/75 98/7/119
f 63/7/75 102/7/120 98/7/119
f 97/7/115 98/7/119 103/7/121
f 103/7/121 98/7/119 104/7/107
f 104/7/107 102/7/120 89/7/105
f 98/7/119 102/7/120 104/7/107
f 107/7/122 105/7/123 102/7/120
f 105/7/123 89/7/105 102/7/120
f 107/7/122 106/7/124 105/7/123
f 66/7/81 106/7/124 107/7/122
f 65/7/79 66/7/81 107/7/122
f 65/7/79 107/7/122 102/7/120
f 64/7/76 66/7/81 65/7/79
f 63/7/75 65/7/79 102/7/120
f 57/7/69 65/7/79 63/7/75
f 67/7/83 108/7/125 66/7/81
f 108/7/125 67/7/83 69/7/85
f 108/7/125 69/7/85 109/7/126
f 69/7/85 110/7/127 109/7/126
f 109/7/126 110/7/127 111/7/128
f 110/7/129 85/7/102 111/7/130
f 111/7/130 85/7/102 86/7/104
f 106/7/124 111/7/130 86/7/104
f 105/7/123 86/7/104 89/7/105
f 106/7/124 86/7/104 105/7/123
f 106/7/124 109/7/126 111/7/130
f 109/7/126 106/7/124 108/7/125
f 66/7/81 108/7/125 106/7/124
f 84/7/101 85/7/102 110/7/129
f 74/7/93 84/7/101 110/7/129
f 72/7/94 74/7/93 110/7/129
f 110/7/131 69/7/85 72/7/90
f 112/7/116 104/7/107 90/7/108
f 91/7/109 112/7/116 90/7/108
f 112/7/116 103/7/121 104/7/107
f 112/7/116 91/7/109 95/7/114
f 103/7/121 112/7/116 97/7/115
f 96/7/117 98/7/119 97/7/115
f 89/7/105 87/7/103 88/7/106
f 86/7/104 87/7/103 89/7/105
f 77/7/96 79/7/97 74/7/93
f 36/7/47 80/7/98 78/7/48
f 28/7/34 33/7/44 78/7/48
f 28/7/34 78/7/48 113/7/132
f 115/7/133 119/7/134 28/7/34
f 115/5/135 114/5/136 116/5/137
f 114/5/136 115/5/135 113/5/132
f 28/5/34 113/5/132 115/5/133
f 116/5/137 53/5/60 117/5/138
f 115/4/135 116/4/137 117/4/138
f 117/4/139 118/4/140 115/4/133
f 25/7/31 28/7/34 119/7/134
f 118/4/140 119/4/134 115/4/133
f 119/4/134 118/4/140 25/4/31
f 25/2/31 118/2/140 120/2/25
f 25/2/31 120/2/25 22/2/27
f 121/7/141 120/7/25 117/7/139
f 117/7/142 122/7/143 121/7/141
f 122/7/24 53/7/60 19/7/22
f 117/7/138 53/7/60 122/7/24
f 122/7/24 120/7/25 123/7/144
f 121/7/141 122/7/143 123/7/144
f 123/7/144 120/7/25 121/7/141
f 120/2/25 122/2/24 17/2/15
f 18/5/18 124/5/145 13/5/16
f 124/5/145 18/5/18 15/5/20
f 15/5/20 13/5/16 124/5/145
f 122/4/24 19/4/22 18/4/18
f 20/4/23 15/4/20 19/4/22
f 120/4/25 118/4/140 117/4/139
f 53/7/60 51/7/65 47/7/59
f 116/5/137 125/5/146 53/5/60
f 125/5/14 126/5/147 52/5/148
f 126/5/147 125/5/146 116/5/137
f 52/5/149 53/5/60 125/5/146
f 127/7/150 128/7/151 125/7/152
f 125/7/153 52/7/148 127/7/150
f 125/7/152 128/7/151 51/7/65
f 52/7/149 125/7/152 51/7/65
f 130/7/78 51/7/65 128/7/151
f 130/7/78 128/7/151 129/7/154
f 130/7/78 129/7/154 131/7/82
f 130/7/78 54/7/66 51/7/65
f 58/7/68 56/7/67 54/7/66
f 54/7/66 130/7/78 58/7/77
f 130/7/78 131/7/82 132/7/80
f 130/7/78 132/7/80 64/7/76
f 133/7/155 67/7/83 131/7/82
f 129/7/154 133/7/155 131/7/82
f 135/7/156 134/7/157 133/7/155
f 136/7/86 133/7/155 134/7/157
f 137/7/158 70/7/88 136/7/86
f 134/7/157 137/7/158 136/7/86
f 137/7/158 134/7/157 138/7/159
f 135/7/156 138/7/159 134/7/157
f 138/7/159 135/7/156 127/7/150
f 138/9/159 127/9/150 126/9/147
f 126/4/147 127/4/150 52/4/148
f 127/7/150 135/7/156 128/7/151
f 135/7/156 129/7/154 128/7/151
f 129/7/154 135/7/156 133/7/155
f 138/5/159 126/5/147 116/5/137
f 114/9/136 76/9/95 138/9/159
f 76/5/95 137/5/158 138/5/159
f 114/5/136 138/5/159 116/5/137
f 114/5/136 113/5/132 139/5/160
f 140/7/161 77/7/96 139/7/162
f 77/7/96 76/7/95 139/7/163
f 76/7/95 140/7/164 139/7/165
f 114/5/136 139/5/160 140/5/166
f 139/5/160 113/5/132 140/5/161
f 78/7/48 77/7/96 140/7/161
f 140/5/161 113/5/132 78/5/48
f 140/4/164 76/4/95 114/4/136
f 76/7/95 75/7/92 73/7/91
f 76/7/95 73/7/91 141/7/167
f 137/7/158 141/7/167 70/7/88
f 141/7/167 71/7/89 70/7/88
f 73/7/91 71/7/89 141/7/167
f 141/5/167 137/5/158 76/5/95
f 68/7/84 136/7/86 70/7/88
f 133/7/155 136/7/86 67/7/83
f 28/4/34 27/4/33 33/4/44
f 57/7/69 59/7/71 56/7/67
f 60/7/70 56/7/67 59/7/71
f 48/7/62 56/7/67 60/7/70
f 48/7/62 60/7/70 39/7/53
f 38/7/51 39/7/53 60/7/70
f 39/4/53 45/4/57 46/4/58
f 45/4/57 39/4/53 44/4/52
f 39/7/53 46/7/58 48/7/62
f 49/8/61 55/8/64 48/8/62
f 51/5/65 53/5/60 52/5/149
f 48/7/62 46/7/58 47/7/59
f 12/4/11 16/4/21 44/4/52
f 44/6/52 41/6/55 12/6/11
f 142/4/168 43/4/56 143/4/3
f 143/4/3 43/4/56 26/4/32
f 26/2/32 7/2/169 143/2/3
f 29/4/170 24/4/171 7/4/169
f 7/4/169 26/4/32 29/4/43
f 6/4/7 7/4/169 24/4/171
f 143/2/3 7/2/169 6/2/7
f 11/2/172 143/2/3 4/2/2
f 142/2/168 143/2/3 11/2/172
f 11/4/172 41/4/55 142/4/168
f 41/4/55 11/4/172 12/4/11
f 12/4/11 11/4/172 10/4/9
f 142/4/168 41/4/55 43/4/56
f 32/5/40 27/5/33 29/5/37
f 27/6/33 26/6/32 42/6/35
f 22/6/27 120/6/25 21/6/26
f 11/2/172 4/2/2 10/2/9
f 144/3/173 5/3/6 9/3/10
f 9/3/10 5/3/6 8/3/8
f 10/1/9 145/1/174 9/1/10
f 2/1/175 3/1/4 5/1/6
f 5/1/6 1/1/1 2/1/5
f 145/1/174 10/1/9 4/1/2
f 144/1/173 145/1/174 4/1/2
f 144/3/173 4/3/2 5/3/6
f 3/3/4 143/3/3 6/3/7
f 3/3/4 6/3/7 5/3/6
f 9/10/10 145/10/174 144/10/173
